<svg width="22" height="18" viewBox="0 0 22 18" fill="none" xmlns="http://www.w3.org/2000/svg">
<path d="M12.8386 11.4781C12.2913 11.843 11.6555 12.0358 11 12.0358C10.3446 12.0358 9.70879 11.843 9.16145 11.4781L0.14648 5.4679C0.0964648 5.43456 0.0477383 5.3998 0 5.36405V15.2124C0 16.3415 0.916309 17.2376 2.02525 17.2376H19.9747C21.1038 17.2376 22 16.3213 22 15.2124V5.364C21.9521 5.39984 21.9033 5.43469 21.8532 5.46807L12.8386 11.4781Z" fill="#E30613"/>
<path d="M0.861523 4.39555L9.8765 10.4058C10.2178 10.6333 10.6089 10.747 11 10.747C11.3911 10.747 11.7822 10.6332 12.1235 10.4058L21.1385 4.39555C21.6779 4.03612 22 3.43456 22 2.7853C22 1.66893 21.0918 0.760742 19.9754 0.760742H2.02456C0.908231 0.760785 0 1.66897 0 2.78637C0 3.43456 0.322094 4.03612 0.861523 4.39555Z" fill="#E30613"/>
</svg>
