<svg width="25" height="25" viewBox="0 0 25 25" fill="none" xmlns="http://www.w3.org/2000/svg">
<g clip-path="url(#clip0_6195_32036)">
<path d="M24.5269 12.1865C24.5269 5.5591 19.1543 0.186523 12.5269 0.186523C5.89943 0.186523 0.526855 5.5591 0.526855 12.1865C0.526855 18.176 4.91506 23.1405 10.6519 24.0407V15.6553H7.60498V12.1865H10.6519V9.54277C10.6519 6.53527 12.4434 4.87402 15.1844 4.87402C16.4969 4.87402 17.8706 5.1084 17.8706 5.1084V8.06152H16.3575C14.8669 8.06152 14.4019 8.9866 14.4019 9.93652V12.1865H17.73L17.1979 15.6553H14.4019V24.0407C20.1387 23.1405 24.5269 18.176 24.5269 12.1865Z" fill="#E30613"/>
</g>
<defs>
<clipPath id="clip0_6195_32036">
<rect width="24" height="24" fill="white" transform="translate(0.526855 0.186523)"/>
</clipPath>
</defs>
</svg>
