<svg width="20" height="20" viewBox="0 0 20 20" fill="none" xmlns="http://www.w3.org/2000/svg">
<path d="M13.0269 9.79053C13.0269 10.3839 12.8509 10.9639 12.5213 11.4572C12.1916 11.9506 11.7231 12.3351 11.1749 12.5622C10.6267 12.7892 10.0235 12.8486 9.44158 12.7329C8.85964 12.6171 8.32509 12.3314 7.90553 11.9118C7.48598 11.4923 7.20025 10.9577 7.0845 10.3758C6.96874 9.79386 7.02815 9.19065 7.25522 8.64248C7.48228 8.0943 7.8668 7.62576 8.36015 7.29612C8.85349 6.96647 9.43351 6.79053 10.0269 6.79053C10.8217 6.793 11.5834 7.10986 12.1454 7.67194C12.7075 8.23401 13.0244 8.99564 13.0269 9.79053ZM19.4019 5.66553V13.9155C19.4019 15.3079 18.8487 16.6433 17.8642 17.6278C16.8796 18.6124 15.5442 19.1655 14.1519 19.1655H5.90186C4.50947 19.1655 3.17411 18.6124 2.18954 17.6278C1.20498 16.6433 0.651855 15.3079 0.651855 13.9155V5.66553C0.651855 4.27314 1.20498 2.93778 2.18954 1.95322C3.17411 0.968651 4.50947 0.415527 5.90186 0.415527H14.1519C15.5442 0.415527 16.8796 0.968651 17.8642 1.95322C18.8487 2.93778 19.4019 4.27314 19.4019 5.66553ZM14.5269 9.79053C14.5269 8.90051 14.2629 8.03048 13.7685 7.29046C13.274 6.55044 12.5712 5.97366 11.7489 5.63307C10.9267 5.29248 10.0219 5.20336 9.14895 5.37699C8.27603 5.55063 7.47421 5.97921 6.84488 6.60855C6.21554 7.23788 5.78696 8.03971 5.61332 8.91262C5.43969 9.78554 5.5288 10.6903 5.8694 11.5126C6.20999 12.3349 6.78677 13.0377 7.52679 13.5321C8.26681 14.0266 9.13684 14.2905 10.0269 14.2905C11.2203 14.2905 12.3649 13.8164 13.2088 12.9725C14.0528 12.1286 14.5269 10.984 14.5269 9.79053ZM16.0269 4.91553C16.0269 4.69302 15.9609 4.47552 15.8373 4.29051C15.7136 4.10551 15.5379 3.96131 15.3324 3.87616C15.1268 3.79101 14.9006 3.76874 14.6824 3.81214C14.4642 3.85555 14.2637 3.9627 14.1064 4.12003C13.949 4.27737 13.8419 4.47782 13.7985 4.69605C13.7551 4.91428 13.7773 5.14048 13.8625 5.34605C13.9476 5.55161 14.0918 5.72731 14.2768 5.85093C14.4618 5.97455 14.6794 6.04053 14.9019 6.04053C15.2002 6.04053 15.4864 5.922 15.6973 5.71102C15.9083 5.50004 16.0269 5.2139 16.0269 4.91553Z" fill="#E30613"/>
</svg>
