
<svg width="21" height="19" viewBox="0 0 21 19" fill="none" xmlns="http://www.w3.org/2000/svg">
<path d="M4.96729 2.84426C4.96702 3.37469 4.75605 3.8833 4.38079 4.25818C4.00553 4.63307 3.49672 4.84353 2.96629 4.84326C2.43585 4.843 1.92725 4.63203 1.55236 4.25677C1.17748 3.88151 0.96702 3.37269 0.967285 2.84226C0.967551 2.31183 1.17852 1.80323 1.55378 1.42834C1.92904 1.05346 2.43785 0.842997 2.96829 0.843262C3.49872 0.843527 4.00732 1.0545 4.38221 1.42976C4.75709 1.80502 4.96755 2.31383 4.96729 2.84426ZM5.02729 6.32426H1.02729V18.8443H5.02729V6.32426ZM11.3473 6.32426H7.36729V18.8443H11.3073V12.2743C11.3073 8.61426 16.0773 8.27426 16.0773 12.2743V18.8443H20.0273V10.9143C20.0273 4.74426 12.9673 4.97426 11.3073 8.00426L11.3473 6.32426Z" fill="#E30613"/>
</svg>
