<svg width="16" height="22" viewBox="0 0 16 22" fill="none" xmlns="http://www.w3.org/2000/svg">
<path d="M8 0.5C5.87913 0.502769 3.84593 1.33334 2.34625 2.80959C0.846571 4.28584 0.00281338 6.28726 0 8.37499C0 14.0286 7.45333 21.1095 7.77 21.4081C7.8316 21.467 7.91411 21.5 8 21.5C8.08589 21.5 8.1684 21.467 8.23 21.4081C8.54667 21.1095 16 14.0286 16 8.37499C15.9972 6.28726 15.1534 4.28584 13.6537 2.80959C12.1541 1.33334 10.1209 0.502769 8 0.5ZM8 11.9844C7.2748 11.9844 6.56589 11.7727 5.96291 11.3761C5.35993 10.9795 4.88996 10.4158 4.61244 9.75624C4.33492 9.09671 4.26231 8.37099 4.40379 7.67084C4.54527 6.97069 4.89448 6.32756 5.40728 5.82278C5.92007 5.318 6.57341 4.97424 7.28467 4.83497C7.99593 4.6957 8.73318 4.76718 9.40317 5.04037C10.0732 5.31355 10.6458 5.77617 11.0487 6.36973C11.4516 6.96329 11.6667 7.66113 11.6667 8.37499C11.6661 9.33208 11.2796 10.2498 10.5921 10.9266C9.90458 11.6033 8.97228 11.9838 8 11.9844Z" fill="#E30613"/>
</svg>
