<svg width="22" height="22" viewBox="0 0 22 22" fill="none" xmlns="http://www.w3.org/2000/svg">
<path d="M19.465 14.1536C18.2303 14.1536 17.018 13.9605 15.8692 13.5809C15.3063 13.3889 14.6142 13.565 14.2707 13.9179L12.0031 15.6296C9.37342 14.2259 7.75358 12.6066 6.36901 9.9966L8.0304 7.78814C8.46204 7.35708 8.61686 6.72739 8.43137 6.13657C8.05009 4.98172 7.85641 3.76998 7.85641 2.53477C7.85646 1.64245 7.13051 0.916504 6.23824 0.916504H2.53472C1.64245 0.916504 0.916504 1.64245 0.916504 2.53472C0.916504 12.7625 9.23725 21.0832 19.465 21.0832C20.3573 21.0832 21.0832 20.3572 21.0832 19.465V15.7718C21.0832 14.8796 20.3572 14.1536 19.465 14.1536Z" fill="#E30613"/>
</svg>
