<svg width="22" height="18" viewBox="0 0 22 18" fill="none" xmlns="http://www.w3.org/2000/svg">
<path d="M21.4869 2.89746C20.7169 3.24746 19.8869 3.47746 19.0269 3.58746C19.9069 3.05746 20.5869 2.21746 20.9069 1.20746C20.0769 1.70746 19.1569 2.05746 18.1869 2.25746C17.3969 1.39746 16.2869 0.897461 15.0269 0.897461C12.6769 0.897461 10.7569 2.81746 10.7569 5.18746C10.7569 5.52746 10.7969 5.85746 10.8669 6.16746C7.30689 5.98746 4.13689 4.27746 2.02689 1.68746C1.65689 2.31746 1.44689 3.05746 1.44689 3.83746C1.44689 5.32746 2.19689 6.64746 3.35689 7.39746C2.64689 7.39746 1.98689 7.19746 1.40689 6.89746V6.92746C1.40689 9.00746 2.88689 10.7475 4.84689 11.1375C4.21762 11.3097 3.55699 11.3336 2.91689 11.2075C3.1885 12.0599 3.72043 12.8059 4.43791 13.3404C5.15539 13.8749 6.02234 14.1712 6.91689 14.1875C5.40052 15.3879 3.52089 16.0368 1.58689 16.0275C1.24689 16.0275 0.906895 16.0075 0.566895 15.9675C2.46689 17.1875 4.72689 17.8975 7.14689 17.8975C15.0269 17.8975 19.3569 11.3575 19.3569 5.68746C19.3569 5.49746 19.3569 5.31746 19.3469 5.12746C20.1869 4.52746 20.9069 3.76746 21.4869 2.89746Z" fill="#E30613"/>
</svg>
