<svg width="25" height="25" viewBox="0 0 25 25" fill="none" xmlns="http://www.w3.org/2000/svg">
<path d="M12.0269 22.8438C17.5497 22.8438 22.0269 18.3666 22.0269 12.8438C22.0269 7.3209 17.5497 2.84375 12.0269 2.84375C6.50401 2.84375 2.02686 7.3209 2.02686 12.8438C2.02686 18.3666 6.50401 22.8438 12.0269 22.8438Z" stroke="#E30613" stroke-width="1.5" stroke-linecap="round" stroke-linejoin="round"/>
<path d="M8.02695 3.84375H9.02695C7.07695 9.68375 7.07695 16.0037 9.02695 21.8438H8.02695" stroke="#E30613" stroke-width="1.5" stroke-linecap="round" stroke-linejoin="round"/>
<path d="M15.0269 3.84375C16.9769 9.68375 16.9769 16.0037 15.0269 21.8438" stroke="#E30613" stroke-width="1.5" stroke-linecap="round" stroke-linejoin="round"/>
<path d="M3.02686 16.8438V15.8438C8.86686 17.7938 15.1869 17.7938 21.0269 15.8438V16.8438" stroke="#E30613" stroke-width="1.5" stroke-linecap="round" stroke-linejoin="round"/>
<path d="M3.02686 9.84336C8.86686 7.89336 15.1869 7.89336 21.0269 9.84336" stroke="#E30613" stroke-width="1.5" stroke-linecap="round" stroke-linejoin="round"/>
</svg>
