<svg width="24" height="24" viewBox="0 0 24 24" fill="none" xmlns="http://www.w3.org/2000/svg">
<path d="M13.8386 14.4781C13.2913 14.843 12.6555 15.0358 12 15.0358C11.3446 15.0358 10.7088 14.843 10.1615 14.4781L1.14648 8.4679C1.09646 8.43456 1.04774 8.3998 1 8.36405V18.2124C1 19.3415 1.91631 20.2376 3.02525 20.2376H20.9747C22.1038 20.2376 23 19.3213 23 18.2124V8.364C22.9521 8.39984 22.9033 8.43469 22.8532 8.46807L13.8386 14.4781Z" fill="#AEAAAB"/>
<path d="M1.86152 7.39555L10.8765 13.4058C11.2178 13.6333 11.6089 13.747 12 13.747C12.3911 13.747 12.7822 13.6332 13.1235 13.4058L22.1385 7.39555C22.6779 7.03612 23 6.43456 23 5.7853C23 4.66893 22.0918 3.76074 20.9754 3.76074H3.02456C1.90823 3.76079 1 4.66897 1 5.78637C1 6.43456 1.32209 7.03612 1.86152 7.39555Z" fill="#AEAAAB"/>
</svg>
