<svg width="20" height="20" viewBox="0 0 20 20" fill="none" xmlns="http://www.w3.org/2000/svg">
<path d="M13.0269 10.0267C13.0269 10.6201 12.8509 11.2001 12.5213 11.6934C12.1916 12.1868 11.7231 12.5713 11.1749 12.7984C10.6267 13.0254 10.0235 13.0848 9.44158 12.9691C8.85964 12.8533 8.32509 12.5676 7.90553 12.1481C7.48598 11.7285 7.20025 11.1939 7.0845 10.612C6.96874 10.0301 7.02815 9.42686 7.25522 8.87868C7.48228 8.3305 7.8668 7.86197 8.36015 7.53232C8.85349 7.20268 9.43351 7.02673 10.0269 7.02673C10.8217 7.02921 11.5834 7.34607 12.1454 7.90814C12.7075 8.47022 13.0244 9.23184 13.0269 10.0267ZM19.4019 5.90173V14.1517C19.4019 15.5441 18.8487 16.8795 17.8642 17.864C16.8796 18.8486 15.5442 19.4017 14.1519 19.4017H5.90186C4.50947 19.4017 3.17411 18.8486 2.18954 17.864C1.20498 16.8795 0.651855 15.5441 0.651855 14.1517V5.90173C0.651855 4.50935 1.20498 3.17399 2.18954 2.18942C3.17411 1.20486 4.50947 0.651733 5.90186 0.651733H14.1519C15.5442 0.651733 16.8796 1.20486 17.8642 2.18942C18.8487 3.17399 19.4019 4.50935 19.4019 5.90173ZM14.5269 10.0267C14.5269 9.13672 14.2629 8.26669 13.7685 7.52667C13.274 6.78665 12.5712 6.20987 11.7489 5.86928C10.9267 5.52868 10.0219 5.43957 9.14895 5.6132C8.27603 5.78683 7.47421 6.21542 6.84488 6.84475C6.21554 7.47409 5.78696 8.27591 5.61332 9.14883C5.43969 10.0217 5.5288 10.9265 5.8694 11.7488C6.20999 12.5711 6.78677 13.2739 7.52679 13.7683C8.26681 14.2628 9.13684 14.5267 10.0269 14.5267C11.2203 14.5267 12.3649 14.0526 13.2088 13.2087C14.0528 12.3648 14.5269 11.2202 14.5269 10.0267ZM16.0269 5.15173C16.0269 4.92923 15.9609 4.71172 15.8373 4.52672C15.7136 4.34171 15.5379 4.19752 15.3324 4.11237C15.1268 4.02722 14.9006 4.00494 14.6824 4.04835C14.4642 4.09176 14.2637 4.1989 14.1064 4.35624C13.949 4.51357 13.8419 4.71403 13.7985 4.93226C13.7551 5.15049 13.7773 5.37669 13.8625 5.58225C13.9476 5.78782 14.0918 5.96352 14.2768 6.08714C14.4618 6.21075 14.6794 6.27673 14.9019 6.27673C15.2002 6.27673 15.4864 6.15821 15.6973 5.94723C15.9083 5.73625 16.0269 5.4501 16.0269 5.15173Z" fill="#004797"/>
</svg>
