<svg width="25" height="25" viewBox="0 0 25 25" fill="none" xmlns="http://www.w3.org/2000/svg">
<path d="M6.96729 5.02676C6.96702 5.55719 6.75605 6.06579 6.38079 6.44068C6.00553 6.81556 5.49672 7.02602 4.96629 7.02576C4.43585 7.02549 3.92725 6.81452 3.55236 6.43926C3.17748 6.064 2.96702 5.55519 2.96729 5.02476C2.96755 4.49432 3.17852 3.98572 3.55378 3.61084C3.92904 3.23595 4.43785 3.02549 4.96829 3.02576C5.49872 3.02602 6.00732 3.23699 6.38221 3.61225C6.75709 3.98751 6.96755 4.49632 6.96729 5.02676ZM7.02729 8.50676H3.02729V21.0268H7.02729V8.50676ZM13.3473 8.50676H9.36729V21.0268H13.3073V14.4568C13.3073 10.7968 18.0773 10.4568 18.0773 14.4568V21.0268H22.0273V13.0968C22.0273 6.92676 14.9673 7.15676 13.3073 10.1868L13.3473 8.50676Z" fill="#004797"/>
</svg>
