<svg width="22" height="22" viewBox="0 0 22 22" fill="none" xmlns="http://www.w3.org/2000/svg">
<path d="M11 0.5C8.87913 0.502769 6.84593 1.33334 5.34625 2.80959C3.84657 4.28584 3.00281 6.28726 3 8.37499C3 14.0286 10.4533 21.1095 10.77 21.4081C10.8316 21.467 10.9141 21.5 11 21.5C11.0859 21.5 11.1684 21.467 11.23 21.4081C11.5467 21.1095 19 14.0286 19 8.37499C18.9972 6.28726 18.1534 4.28584 16.6537 2.80959C15.1541 1.33334 13.1209 0.502769 11 0.5ZM11 11.9844C10.2748 11.9844 9.56589 11.7727 8.96291 11.3761C8.35993 10.9795 7.88996 10.4158 7.61244 9.75624C7.33492 9.09671 7.26231 8.37099 7.40379 7.67084C7.54527 6.97069 7.89448 6.32756 8.40728 5.82278C8.92007 5.318 9.57341 4.97424 10.2847 4.83497C10.9959 4.6957 11.7332 4.76718 12.4032 5.04037C13.0732 5.31355 13.6458 5.77617 14.0487 6.36973C14.4516 6.96329 14.6667 7.66113 14.6667 8.37499C14.6661 9.33208 14.2796 10.2498 13.5921 10.9266C12.9046 11.6033 11.9723 11.9838 11 11.9844Z" fill="#AEAAAB"/>
</svg>
