<svg width="22" height="22" viewBox="0 0 22 22" fill="none" xmlns="http://www.w3.org/2000/svg">
<path d="M19.465 14.1537C18.2303 14.1537 17.018 13.9606 15.8692 13.581C15.3063 13.389 14.6142 13.5651 14.2707 13.918L12.0031 15.6297C9.37342 14.226 7.75358 12.6067 6.36901 9.99672L8.0304 7.78826C8.46204 7.3572 8.61686 6.72752 8.43137 6.13669C8.05009 4.98184 7.85641 3.7701 7.85641 2.5349C7.85646 1.64257 7.13051 0.916626 6.23824 0.916626H2.53472C1.64245 0.916626 0.916504 1.64257 0.916504 2.53484C0.916504 12.7626 9.23725 21.0833 19.465 21.0833C20.3573 21.0833 21.0832 20.3573 21.0832 19.4651V15.7719C21.0832 14.8797 20.3572 14.1537 19.465 14.1537Z" fill="#AEAAAB"/>
</svg>
