<svg width="22" height="18" viewBox="0 0 22 18" fill="none" xmlns="http://www.w3.org/2000/svg">
<path d="M21.4869 2.02673C20.7169 2.37673 19.8869 2.60673 19.0269 2.71673C19.9069 2.18673 20.5869 1.34673 20.9069 0.336733C20.0769 0.836733 19.1569 1.18673 18.1869 1.38673C17.3969 0.526734 16.2869 0.0267334 15.0269 0.0267334C12.6769 0.0267334 10.7569 1.94673 10.7569 4.31673C10.7569 4.65673 10.7969 4.98673 10.8669 5.29673C7.30689 5.11673 4.13689 3.40673 2.02689 0.816733C1.65689 1.44673 1.44689 2.18673 1.44689 2.96673C1.44689 4.45673 2.19689 5.77673 3.35689 6.52673C2.64689 6.52673 1.98689 6.32673 1.40689 6.02673V6.05673C1.40689 8.13673 2.88689 9.87673 4.84689 10.2667C4.21762 10.4389 3.55699 10.4629 2.91689 10.3367C3.1885 11.1892 3.72043 11.9351 4.43791 12.4697C5.15539 13.0042 6.02234 13.3004 6.91689 13.3167C5.40052 14.5172 3.52089 15.166 1.58689 15.1567C1.24689 15.1567 0.906895 15.1367 0.566895 15.0967C2.46689 16.3167 4.72689 17.0267 7.14689 17.0267C15.0269 17.0267 19.3569 10.4867 19.3569 4.81673C19.3569 4.62673 19.3569 4.44673 19.3469 4.25673C20.1869 3.65673 20.9069 2.89673 21.4869 2.02673Z" fill="#004797"/>
</svg>
