<svg width="25" height="25" viewBox="0 0 25 25" fill="none" xmlns="http://www.w3.org/2000/svg">
<path d="M12.0269 22.0802C17.5497 22.0802 22.0269 17.603 22.0269 12.0802C22.0269 6.55735 17.5497 2.0802 12.0269 2.0802C6.50401 2.0802 2.02686 6.55735 2.02686 12.0802C2.02686 17.603 6.50401 22.0802 12.0269 22.0802Z" stroke="#004797" stroke-width="1.5" stroke-linecap="round" stroke-linejoin="round"/>
<path d="M8.02695 3.0802H9.02695C7.07695 8.9202 7.07695 15.2402 9.02695 21.0802H8.02695" stroke="#004797" stroke-width="1.5" stroke-linecap="round" stroke-linejoin="round"/>
<path d="M15.0269 3.0802C16.9769 8.9202 16.9769 15.2402 15.0269 21.0802" stroke="#004797" stroke-width="1.5" stroke-linecap="round" stroke-linejoin="round"/>
<path d="M3.02686 16.0802V15.0802C8.86686 17.0302 15.1869 17.0302 21.0269 15.0802V16.0802" stroke="#004797" stroke-width="1.5" stroke-linecap="round" stroke-linejoin="round"/>
<path d="M3.02686 9.08018C8.86686 7.13018 15.1869 7.13018 21.0269 9.08018" stroke="#004797" stroke-width="1.5" stroke-linecap="round" stroke-linejoin="round"/>
</svg>
