<svg width="21" height="20" viewBox="0 0 21 20" fill="none" xmlns="http://www.w3.org/2000/svg">
<g clip-path="url(#clip0_1163_25253)">
<path d="M1.30919 9.88425C1.30874 11.5102 1.73357 13.0977 2.54139 14.497L1.23193 19.2781L6.12473 17.9952C7.47802 18.7319 8.99427 19.1179 10.5351 19.118H10.5391C15.6257 19.118 19.7662 14.979 19.7684 9.89152C19.7694 7.4263 18.8102 5.10816 17.0675 3.36412C15.3251 1.62023 13.0078 0.659328 10.5388 0.658203C5.45162 0.658203 1.31137 4.79704 1.30926 9.88425" fill="url(#paint0_linear_1163_25253)"/>
<path d="M0.979671 9.88119C0.979145 11.5656 1.41921 13.21 2.25582 14.6594L0.899414 19.6118L5.96765 18.2829C7.36411 19.0443 8.93639 19.4457 10.5363 19.4463H10.5404C15.8094 19.4463 20.0987 15.1584 20.101 9.88884C20.1019 7.33503 19.1082 4.93357 17.3032 3.12704C15.4981 1.32075 13.0979 0.325269 10.5404 0.324219C5.27047 0.324219 0.981771 4.61157 0.979671 9.88119ZM3.99799 14.4098L3.80875 14.1094C3.01323 12.8445 2.59335 11.3827 2.59395 9.88179C2.5956 5.50181 6.16019 1.93835 10.5434 1.93835C12.6661 1.93925 14.6609 2.76672 16.1613 4.26804C17.6617 5.76951 18.4873 7.76542 18.4868 9.88824C18.4848 14.2682 14.9201 17.8321 10.5404 17.8321H10.5372C9.11115 17.8314 7.71251 17.4484 6.49277 16.7247L6.20249 16.5525L3.1949 17.3411L3.99799 14.4098Z" fill="url(#paint1_linear_1163_25253)"/>
<path d="M8.15107 5.8856C7.9721 5.48784 7.78376 5.47982 7.61357 5.47284C7.47421 5.46684 7.3149 5.46729 7.15574 5.46729C6.99642 5.46729 6.73758 5.52722 6.51878 5.76612C6.29977 6.00524 5.68262 6.58308 5.68262 7.75835C5.68262 8.93362 6.53866 10.0695 6.658 10.2291C6.77748 10.3883 8.3106 12.8773 10.7387 13.8348C12.7567 14.6306 13.1673 14.4723 13.6053 14.4324C14.0433 14.3926 15.0187 13.8547 15.2177 13.2969C15.4168 12.7391 15.4168 12.261 15.3571 12.1611C15.2974 12.0616 15.1381 12.0018 14.8992 11.8824C14.6603 11.763 13.4858 11.185 13.2669 11.1053C13.0478 11.0256 12.8886 10.9859 12.7293 11.2251C12.57 11.4639 12.1125 12.0018 11.9731 12.1611C11.8338 12.3208 11.6944 12.3407 11.4555 12.2212C11.2165 12.1014 10.4472 11.8494 9.5344 11.0357C8.82425 10.4025 8.34481 9.62053 8.20545 9.38133C8.06608 9.14251 8.19052 9.01305 8.3103 8.89402C8.41764 8.78699 8.54927 8.61507 8.66883 8.47564C8.78794 8.33612 8.8277 8.23659 8.90735 8.07728C8.98708 7.91782 8.94718 7.7783 8.88755 7.65882C8.8277 7.53934 8.36348 6.35791 8.15107 5.8856Z" fill="white"/>
</g>
<defs>
<linearGradient id="paint0_linear_1163_25253" x1="928.056" y1="1862.65" x2="928.056" y2="0.658203" gradientUnits="userSpaceOnUse">
<stop stop-color="#1FAF38"/>
<stop offset="1" stop-color="#60D669"/>
</linearGradient>
<linearGradient id="paint1_linear_1163_25253" x1="960.977" y1="1929.08" x2="960.977" y2="0.324219" gradientUnits="userSpaceOnUse">
<stop stop-color="#F9F9F9"/>
<stop offset="1" stop-color="white"/>
</linearGradient>
<clipPath id="clip0_1163_25253">
<rect width="19.2015" height="19.3516" fill="white" transform="translate(0.899414 0.324219)"/>
</clipPath>
</defs>
</svg>
