<?xml version="1.0" encoding="UTF-8"?>
<svg version="1.1" xmlns="http://www.w3.org/2000/svg" width="46" height="44">
<path d="M0 0 C15.18 0 30.36 0 46 0 C46 14.52 46 29.04 46 44 C30.82 44 15.64 44 0 44 C0 29.48 0 14.96 0 0 Z " fill="#0494D7" transform="translate(0,0)"/>
<path d="M0 0 C12.21 0 24.42 0 37 0 C35 2 35 2 32.625 3.3125 C29.85620431 4.84832495 29.85620431 4.84832495 28.265625 7.5703125 C26 10 26 10 22.7578125 10.56640625 C21.55898438 10.56511719 20.36015625 10.56382813 19.125 10.5625 C11.72061185 10.80681662 11.72061185 10.80681662 6 15 C4.27323341 18.68900135 3.56108715 21.94005613 4 26 C4.66 26.99 5.32 27.98 6 29 C6.4140625 31.26171875 6.4140625 31.26171875 6.625 33.6875 C6.69976563 34.49574219 6.77453125 35.30398437 6.8515625 36.13671875 C6.92503906 37.05904297 6.92503906 37.05904297 7 38 C8.65 38.33 10.3 38.66 12 39 C12 39.66 12 40.32 12 41 C14.56364483 41.10845031 17.12266279 41.18749744 19.6875 41.25 C20.40873047 41.28351562 21.12996094 41.31703125 21.87304688 41.3515625 C25.77954343 41.42291404 27.56934334 41.27534719 30.95703125 39.109375 C33.04039988 37.17004814 33.04039988 37.17004814 34 35 C37.96 35 41.92 35 46 35 C46 37.97 46 40.94 46 44 C30.82 44 15.64 44 0 44 C0 29.48 0 14.96 0 0 Z " fill="#E92228" transform="translate(0,0)"/>
<path d="M0 0 C0 6.6 0 13.2 0 20 C-7 21 -7 21 -9 21 C-9.66 22.32 -10.32 23.64 -11 25 C-15.26672384 24.52591957 -17.2455048 22.11692878 -20 19 C-21.92554121 15.87016841 -22.2474765 13.52811436 -22.1875 9.875 C-22.17783203 8.57175781 -22.17783203 8.57175781 -22.16796875 7.2421875 C-22 5 -22 5 -21 3 C-18.5625 3.8125 -18.5625 3.8125 -16 5 C-14.89066788 8.32799637 -14.49543227 11.53197414 -14 15 C-13.67 15.99 -13.34 16.98 -13 18 C-10.98491642 18.73323796 -10.98491642 18.73323796 -9 19 C-9.45363171 17.41531323 -9.91311452 15.83230076 -10.375 14.25 C-10.63023438 13.36828125 -10.88546875 12.4865625 -11.1484375 11.578125 C-11.9209934 9.23919428 -12.83625676 7.16557438 -14 5 C-8.72577195 -0.27422805 -8.65815048 0 0 0 Z " fill="#020205" transform="translate(46,8)"/>
<path d="M0 0 C0.5625 1.9375 0.5625 1.9375 1 4 C0.67 4.33 0.34 4.66 0 5 C-0.29386153 8.72224599 -0.14809171 9.77786243 2 13 C2.4140625 15.26171875 2.4140625 15.26171875 2.625 17.6875 C2.69976563 18.49574219 2.77453125 19.30398437 2.8515625 20.13671875 C2.92503906 21.05904297 2.92503906 21.05904297 3 22 C4.65 22.33 6.3 22.66 8 23 C8 23.66 8 24.32 8 25 C10.56364483 25.10845031 13.12266279 25.18749744 15.6875 25.25 C16.40873047 25.28351562 17.12996094 25.31703125 17.87304688 25.3515625 C21.77954343 25.42291404 23.56934334 25.27534719 26.95703125 23.109375 C29.04039988 21.17004814 29.04039988 21.17004814 30 19 C33.96 19 37.92 19 42 19 C42 21.97 42 24.94 42 28 C26.82 28 11.64 28 -4 28 C-4 5 -4 5 0 0 Z " fill="#1D8DD1" transform="translate(4,16)"/>
<path d="M0 0 C0 2.64 0 5.28 0 8 C-0.68707031 8.10957031 -1.37414063 8.21914062 -2.08203125 8.33203125 C-2.98308594 8.49058594 -3.88414063 8.64914062 -4.8125 8.8125 C-5.70582031 8.96332031 -6.59914063 9.11414062 -7.51953125 9.26953125 C-10.18321256 10.05395393 -11.25690322 10.88627799 -13 13 C-12.71125 13.556875 -12.4225 14.11375 -12.125 14.6875 C-10.04199699 18.96922841 -8.72401319 22.17023089 -9 27 C-10.8125 26.875 -10.8125 26.875 -13 26 C-15.12941757 22.72982302 -16.02903122 20.74029601 -15.875 16.8125 C-15.91625 15.884375 -15.9575 14.95625 -16 14 C-18.475 12.515 -18.475 12.515 -21 11 C-21 15.95 -21 20.9 -21 26 C-23.34240025 23.65759975 -23.36283032 22.82911717 -23.6875 19.625 C-23.77386719 18.85414062 -23.86023437 18.08328125 -23.94921875 17.2890625 C-24.00027694 14.98751626 -23.66593825 13.19308988 -23 11 C-30.55038422 11.65349633 -30.55038422 11.65349633 -38 13 C-35.44725126 10.54394629 -34.14109357 10.01197061 -30.546875 9.70703125 C-29.29390625 9.74183594 -28.0409375 9.77664063 -26.75 9.8125 C-25.48671875 9.83957031 -24.2234375 9.86664063 -22.921875 9.89453125 C-21.95765625 9.92933594 -20.9934375 9.96414063 -20 10 C-19.56107422 9.07574219 -19.56107422 9.07574219 -19.11328125 8.1328125 C-17.34568919 4.74647824 -15.11886038 2.63934879 -11.8125 0.75 C-7.85964107 -0.30409571 -4.06605938 -0.15945331 0 0 Z " fill="#2884B8" transform="translate(46,0)"/>
<path d="M0 0 C2.4375 0.8125 2.4375 0.8125 5 2 C6.10933212 5.32799637 6.50456773 8.53197414 7 12 C7.33 12.99 7.66 13.98 8 15 C12.29 15.33 16.58 15.66 21 16 C19 18 19 18 15.375 18.125 C14.26125 18.08375 13.1475 18.0425 12 18 C11.34 19.32 10.68 20.64 10 22 C5.73327616 21.52591957 3.7544952 19.11692878 1 16 C-0.92554121 12.87016841 -1.2474765 10.52811436 -1.1875 6.875 C-1.17783203 5.57175781 -1.17783203 5.57175781 -1.16796875 4.2421875 C-1 2 -1 2 0 0 Z " fill="#030F1A" transform="translate(25,11)"/>
<path d="M0 0 C1.07894531 0.04640625 2.15789063 0.0928125 3.26953125 0.140625 C4.35621094 0.17671875 5.44289063 0.2128125 6.5625 0.25 C7.39394531 0.29640625 8.22539063 0.3428125 9.08203125 0.390625 C9.08203125 3.360625 9.08203125 6.330625 9.08203125 9.390625 C1.16203125 9.390625 -6.75796875 9.390625 -14.91796875 9.390625 C-12.91796875 7.390625 -12.91796875 7.390625 -9.48046875 6.015625 C-5.89431774 4.76884843 -5.89431774 4.76884843 -4.58203125 2.3046875 C-2.91796875 0.390625 -2.91796875 0.390625 0 0 Z " fill="#D42A33" transform="translate(36.91796875,34.609375)"/>
<path d="M0 0 C1.46484375 1.30208333 2.9296875 2.60416667 4.39453125 3.90625 C6.089448 5.28151241 6.089448 5.28151241 9 5 C9.66 3.68 10.32 2.36 11 1 C13.97 1 16.94 1 20 1 C20 3.31 20 5.62 20 8 C16.04 8 12.08 8 8 8 C7.34 9.32 6.68 10.64 6 12 C3.875 13.75 3.875 13.75 2 15 C1.34 14.67 0.68 14.34 0 14 C1.375 12 1.375 12 3 10 C3.66 10 4.32 10 5 10 C4.52797514 5.75177626 2.03344482 3.80010291 -1 1 C-0.67 0.67 -0.34 0.34 0 0 Z " fill="#3181B3" transform="translate(26,27)"/>
<path d="M0 0 C4.29 0 8.58 0 13 0 C11 2 11 2 8.625 3.375 C5.92717173 4.8802678 5.92717173 4.8802678 4 7.1875 C2 9 2 9 -0.75 9.25 C-1.4925 9.1675 -2.235 9.085 -3 9 C-4.125 4.25 -4.125 4.25 -3 2 C-2.01 2 -1.02 2 0 2 C0 1.34 0 0.68 0 0 Z " fill="#EC202E" transform="translate(24,0)"/>
<path d="M0 0 C2 3 2 3 2 5 C2.66 5 3.32 5 4 5 C3.34 6.98 2.68 8.96 2 11 C-0.64 10.67 -3.28 10.34 -6 10 C-6.33 7.36 -6.66 4.72 -7 2 C-4.69 2 -2.38 2 0 2 C0 1.34 0 0.68 0 0 Z " fill="#148FCA" transform="translate(22,21)"/>
<path d="M0 0 C4 4 4 4 6 7 C8.30144109 8.07136051 10.6340213 9.07989717 13 10 C13 10.66 13 11.32 13 12 C8.71 12 4.42 12 0 12 C0 8.04 0 4.08 0 0 Z " fill="#DB2634" transform="translate(0,32)"/>
<path d="M0 0 C2.4375 0.8125 2.4375 0.8125 5 2 C6.44856764 6.34570291 5.42444707 9.72665878 4 14 C3.01 14 2.02 14 1 14 C1 13.34 1 12.68 1 12 C0.34 12 -0.32 12 -1 12 C-1.02698189 10.37509046 -1.04638757 8.75005367 -1.0625 7.125 C-1.07410156 6.22007813 -1.08570312 5.31515625 -1.09765625 4.3828125 C-1 2 -1 2 0 0 Z " fill="#030914" transform="translate(25,11)"/>
<path d="M0 0 C1.875 0.25 1.875 0.25 4 1 C5.125 2.75 5.125 2.75 6 5 C6.556875 6.2065625 6.556875 6.2065625 7.125 7.4375 C8.04315948 10.12639561 8.16109812 12.18078283 8 15 C6.1875 14.875 6.1875 14.875 4 14 C1.30575157 9.8624042 0.77877868 6.86686906 1 2 C0.67 1.34 0.34 0.68 0 0 Z " fill="#27769E" transform="translate(29,12)"/>
<path d="M0 0 C3.3 0 6.6 0 10 0 C10 0.66 10 1.32 10 2 C8.02 2 6.04 2 4 2 C4 2.66 4 3.32 4 4 C4.99 4.33 5.98 4.66 7 5 C4.42786866 6.61949011 3.32330841 7.04408751 0.25 6.625 C-0.4925 6.41875 -1.235 6.2125 -2 6 C-1.34 4.02 -0.68 2.04 0 0 Z " fill="#F51E2A" transform="translate(7,4)"/>
<path d="M0 0 C1.21236328 0.02707031 1.21236328 0.02707031 2.44921875 0.0546875 C3.37154297 0.08949219 3.37154297 0.08949219 4.3125 0.125 C3.3125 2.125 3.3125 2.125 1.0625 3.375 C-2.33977747 5.54008567 -4.1761516 7.9858145 -6.6875 11.125 C-7.0175 11.125 -7.3475 11.125 -7.6875 11.125 C-7.76846803 9.66757537 -7.82667774 8.20887193 -7.875 6.75 C-7.90980469 5.93789062 -7.94460937 5.12578125 -7.98046875 4.2890625 C-7.88378906 3.57492187 -7.78710938 2.86078125 -7.6875 2.125 C-4.48369983 -0.01086678 -3.66810033 -0.10632175 0 0 Z " fill="#E3212F" transform="translate(7.6875,9.875)"/>
<path d="M0 0 C2.1484375 1.953125 2.1484375 1.953125 4.296875 3.90625 C6.22360515 5.36024492 6.22360515 5.36024492 10 5 C10 5.66 10 6.32 10 7 C10.66 7.33 11.32 7.66 12 8 C10.68 8 9.36 8 8 8 C7.7525 8.598125 7.505 9.19625 7.25 9.8125 C5.83629988 12.28647521 4.34944617 13.43370255 2 15 C1.34 14.67 0.68 14.34 0 14 C1.375 12 1.375 12 3 10 C3.66 10 4.32 10 5 10 C4.52797514 5.75177626 2.03344482 3.80010291 -1 1 C-0.67 0.67 -0.34 0.34 0 0 Z " fill="#46739B" transform="translate(26,27)"/>
<path d="M0 0 C3.63 0 7.26 0 11 0 C8.82910862 2.17089138 6.63296286 3.4327602 4 5 C2.65368175 5.98244845 1.31558703 6.97676564 0 8 C-0.79953138 4.71303767 -1.09658936 3.28976808 0 0 Z " fill="#D52831" transform="translate(26,0)"/>
<path d="M0 0 C0 0.33 0 0.66 0 1 C-1.36125 1.433125 -1.36125 1.433125 -2.75 1.875 C-5.32202908 2.76531776 -7.61346766 3.71494413 -10 5 C-10 6.98 -10 8.96 -10 11 C-11.32 9.68 -12.64 8.36 -14 7 C-11.07013018 -0.08051873 -7.02367934 -0.35118397 0 0 Z " fill="#030D1A" transform="translate(46,8)"/>
<path d="M0 0 C1.485 0.99 1.485 0.99 3 2 C4.65549531 2.38499891 6.3222433 2.72793135 8 3 C8 3.66 8 4.32 8 5 C11.96 5.33 15.92 5.66 20 6 C18 8 18 8 15.8359375 8.1953125 C14.61777344 8.16050781 14.61777344 8.16050781 13.375 8.125 C12.55773438 8.10695313 11.74046875 8.08890625 10.8984375 8.0703125 C10.27195312 8.04710937 9.64546875 8.02390625 9 8 C9 7.34 9 6.68 9 6 C7.88625 5.7525 6.7725 5.505 5.625 5.25 C2 4 2 4 0.5625 1.875 C0.376875 1.25625 0.19125 0.6375 0 0 Z " fill="#626A99" transform="translate(4,36)"/>
<path d="M0 0 C5.27315333 0.4452885 10.01770224 1.08373163 15 3 C15 3.33 15 3.66 15 4 C10.38 4 5.76 4 1 4 C0.67 2.68 0.34 1.36 0 0 Z " fill="#BC3A50" transform="translate(11,6)"/>
<path d="M0 0 C0.66 0 1.32 0 2 0 C2.66 2.64 3.32 5.28 4 8 C2.68 8.33 1.36 8.66 0 9 C-1.125 2.25 -1.125 2.25 0 0 Z " fill="#0A0102" transform="translate(26,16)"/>
<path d="M0 0 C0.98120464 3.05263664 0.98120464 4.94736336 0 8 C0.66 8 1.32 8 2 8 C2.33 10.64 2.66 13.28 3 16 C1 14.6875 1 14.6875 -1 12 C-1.41423068 8.30958124 -1.37244965 4.6939678 -1 1 C-0.67 0.67 -0.34 0.34 0 0 Z " fill="#556EA0" transform="translate(1,20)"/>
<path d="M0 0 C0.66 0.33 1.32 0.66 2 1 C1.67 2.32 1.34 3.64 1 5 C-7.03571429 7.27678571 -7.03571429 7.27678571 -11 6 C-10.37351562 5.73445313 -9.74703125 5.46890625 -9.1015625 5.1953125 C-8.28429687 4.84210937 -7.46703125 4.48890625 -6.625 4.125 C-5.40683594 3.60292969 -5.40683594 3.60292969 -4.1640625 3.0703125 C-1.86197701 2.07553933 -1.86197701 2.07553933 0 0 Z " fill="#D32841" transform="translate(33,37)"/>
<path d="M0 0 C2.97 0 5.94 0 9 0 C9 0.99 9 1.98 9 3 C6.03 3 3.06 3 0 3 C0 2.01 0 1.02 0 0 Z " fill="#0691D2" transform="translate(37,30)"/>
<path d="M0 0 C2.31 0 4.62 0 7 0 C7 2.31 7 4.62 7 7 C6.67 5.68 6.34 4.36 6 3 C4.35 3 2.7 3 1 3 C0.67 2.01 0.34 1.02 0 0 Z " fill="#EF181B" transform="translate(39,37)"/>
<path d="M0 0 C1.98 0.99 1.98 0.99 4 2 C4 3.65 4 5.3 4 7 C2.68 6.67 1.36 6.34 0 6 C0 4.02 0 2.04 0 0 Z " fill="#2183B6" transform="translate(33,20)"/>
<path d="M0 0 C2.97 0 5.94 0 9 0 C7.61349567 2.77300866 5.65746752 3.45496074 3 5 C1.65368175 5.98244845 0.31558703 6.97676564 -1 8 C-0.690625 7.401875 -0.38125 6.80375 -0.0625 6.1875 C1.10209704 3.91043228 1.10209704 3.91043228 2 1 C1.34 0.67 0.68 0.34 0 0 Z " fill="#A9415E" transform="translate(3,10)"/>
<path d="M0 0 C1.65 0.33 3.3 0.66 5 1 C4.67 2.32 4.34 3.64 4 5 C2.35 4.67 0.7 4.34 -1 4 C-0.67 2.68 -0.34 1.36 0 0 Z " fill="#0B91D3" transform="translate(29,7)"/>
<path d="M0 0 C1.32 0 2.64 0 4 0 C3.67 1.65 3.34 3.3 3 5 C1.68 4.67 0.36 4.34 -1 4 C-0.67 2.68 -0.34 1.36 0 0 Z " fill="#C7F1FD" transform="translate(17,24)"/>
<path d="M0 0 C2.64 0 5.28 0 8 0 C8 0.99 8 1.98 8 3 C6.02 3 4.04 3 2 3 C2 2.34 2 1.68 2 1 C1.34 0.67 0.68 0.34 0 0 Z " fill="#0491E4" transform="translate(10,38)"/>
<path d="M0 0 C2.0625 0.4375 2.0625 0.4375 4 1 C4 1.99 4 2.98 4 4 C2.35 4.66 0.7 5.32 -1 6 C-1.042721 4.33388095 -1.04063832 2.66617115 -1 1 C-0.67 0.67 -0.34 0.34 0 0 Z " fill="#EF1D33" transform="translate(35,36)"/>
<path d="M0 0 C0.79921875 0.01804687 1.5984375 0.03609375 2.421875 0.0546875 C3.02515625 0.07789063 3.6284375 0.10109375 4.25 0.125 C4.25 0.455 4.25 0.785 4.25 1.125 C3.56292969 1.24617187 2.87585937 1.36734375 2.16796875 1.4921875 C1.26691406 1.65976563 0.36585937 1.82734375 -0.5625 2 C-1.45582031 2.16242187 -2.34914063 2.32484375 -3.26953125 2.4921875 C-5.97727846 3.03688449 -5.97727846 3.03688449 -8.75 5.125 C-8.75 4.135 -8.75 3.145 -8.75 2.125 C-5.68753253 0.34090198 -3.52920727 -0.10380021 0 0 Z " fill="#227FAE" transform="translate(41.75,6.875)"/>
<path d="M0 0 C0.66 0 1.32 0 2 0 C2 0.66 2 1.32 2 2 C2.99 2.33 3.98 2.66 5 3 C3.02 3.66 1.04 4.32 -1 5 C-0.67 3.35 -0.34 1.7 0 0 Z " fill="#EC1E36" transform="translate(9,6)"/>
</svg>
