<?xml version="1.0" encoding="UTF-8"?>
<svg version="1.1" xmlns="http://www.w3.org/2000/svg" width="225" height="225">
<path d="M0 0 C0.845625 0.474375 1.69125 0.94875 2.5625 1.4375 C6.04988842 2.24228194 7.72704132 0.72008517 10.765625 -0.96484375 C17.02302588 -3.86381444 23.65497787 -3.21944276 30.1875 -1.66796875 C32 -1 32 -1 34 1 C33.443125 2.3303125 33.443125 2.3303125 32.875 3.6875 C31.88853402 7.42197834 32.11549667 8.70211917 34 12 C36.98997825 13.49498913 39.70042775 13.11577446 43 13 C43.99 12.67 44.98 12.34 46 12 C48.64833094 18.97040705 49.7207737 27.37047077 47.06640625 34.51171875 C46.05582335 36.34755275 45.02896989 38.17440825 44 40 C44.07989578 43.27572706 45.01859003 45.03494926 46.5625 47.9375 C49.05223813 53.50568282 48.69600956 60.05662428 48 66 C46.4765625 69.43359375 46.4765625 69.43359375 45 72 C43.948125 71.608125 42.89625 71.21625 41.8125 70.8125 C38.11744427 69.68082098 38.11744427 69.68082098 35.125 71 C32.33691097 73.62408379 32.15135721 75.21606985 32 79 C32.36858988 81.76864953 32.36858988 81.76864953 33 84 C26.39591793 87.10342203 18.14548349 87.39545148 11.2265625 85.06640625 C8.875 83.9375 8.875 83.9375 6.8671875 82.77734375 C4.47243839 81.78036661 3.40174602 82.11565489 1 83 C0.030625 83.495 -0.93875 83.99 -1.9375 84.5 C-7.66867811 87.30710765 -14.1038379 88.14163523 -20.29296875 86.328125 C-22.2165586 85.60635323 -24.11157579 84.80932466 -26 84 C-25.88140625 83.39671875 -25.7628125 82.7934375 -25.640625 82.171875 C-24.72464622 77.08354361 -24.72464622 77.08354361 -26.5625 72.4375 C-29.62505539 70.63137759 -31.48989602 70.70749134 -35 71 C-36.32 71 -37.64 71 -39 71 C-41.72871695 64.68984206 -42.21173624 57.76691918 -40.1015625 51.20703125 C-39.3981974 49.51845616 -38.65911287 47.84403304 -37.875 46.19140625 C-36.67344078 43.18214409 -36.6549239 40.8503661 -37.875 37.84375 C-38.431875 36.68359375 -38.431875 36.68359375 -39 35.5 C-41.92763773 28.4819748 -41.94776616 21.55412308 -40 14.25 C-39.67 13.5075 -39.34 12.765 -39 12 C-38.39671875 12.08378906 -37.7934375 12.16757812 -37.171875 12.25390625 C-36.37265625 12.35574219 -35.5734375 12.45757812 -34.75 12.5625 C-33.96109375 12.66691406 -33.1721875 12.77132812 -32.359375 12.87890625 C-29.99467126 13.00027349 -28.2488963 12.69633257 -26 12 C-25.23826608 7.6835078 -24.83936396 4.25566547 -26 0 C-17.1434652 -4.62080076 -9.06072676 -3.78738379 0 0 Z M-26 14 C-29.23630326 18.34878251 -29.3494413 22.39021943 -29.3984375 27.6328125 C-29.10173013 30.50170928 -29.10173013 30.50170928 -26 34 C-19.07 27.07 -12.14 20.14 -5 13 C-5.33 12.01 -5.66 11.02 -6 10 C-13.64778729 7.45073757 -19.94758904 8.64375838 -26 14 Z M12 11 C16.36821848 16.21608697 20.94240875 21.12518617 25.75 25.9375 C26.42160156 26.62134766 27.09320313 27.30519531 27.78515625 28.00976562 C28.42839844 28.65494141 29.07164062 29.30011719 29.734375 29.96484375 C30.31413086 30.5487085 30.89388672 31.13257324 31.49121094 31.73413086 C32.92711367 33.21424712 32.92711367 33.21424712 35 33 C36.8903924 27.11877919 37.60758405 22.75892969 35 17 C31.87841418 13.09801773 28.65437851 10.80475901 24 9 C19.53174105 8.53455636 16.17384208 9.40996492 12 11 Z M0.3125 22.4375 C-2.94344342 25.27048998 -5.68692566 25.67448496 -10 26 C-10.99 26.33 -11.98 26.66 -13 27 C-12.896875 28.19625 -12.79375 29.3925 -12.6875 30.625 C-12.65644487 34.11559679 -13.2385682 35.83724368 -15.5 38.5 C-16.7375 39.7375 -16.7375 39.7375 -18 41 C-16.96952592 43.21948263 -16.08403036 44.91273771 -14.375 46.6875 C-12.23921251 50.27950623 -12.76456219 53.9190779 -13 58 C-11.80375 57.9175 -10.6075 57.835 -9.375 57.75 C-4.88626052 57.73413873 -2.56152042 59.24791604 1 62 C2.3191582 62.69429379 3.64649406 63.37530495 5 64 C5.804375 63.195625 6.60875 62.39125 7.4375 61.5625 C11.26663263 58.31186942 15.1211256 58.11926137 20 58 C19.938125 56.948125 19.87625 55.89625 19.8125 54.8125 C20.04984506 49.98648371 21.45381114 47.66072136 24.6875 44.1875 C25.120625 43.795625 25.55375 43.40375 26 43 C25.0256528 40.82645625 24.26816252 39.23609219 22.46484375 37.6484375 C20.59295714 35.5419411 20.54909619 34.21845751 20.375 31.4375 C20.17127819 28.09224742 20.17127819 28.09224742 19 25 C17.80375 25.103125 16.6075 25.20625 15.375 25.3125 C10.38345922 25.35675125 8.52006598 23.35244379 5 20 C2.64220113 19.77606169 2.64220113 19.77606169 0.3125 22.4375 Z M-27 50 C-29.63209197 54.56931166 -29.66092946 58.84311828 -29 64 C-26.78757561 68.42484878 -24.05200384 71.19476657 -20 74 C-15.47258828 75.50913724 -10.93573202 75.77429281 -6.5 74 C-6.005 73.67 -5.51 73.34 -5 73 C-6.5120546 69.44710141 -8.59049171 67.16466444 -11.31640625 64.453125 C-12.16267578 63.60878906 -13.00894531 62.76445313 -13.88085938 61.89453125 C-14.76580078 61.02183594 -15.65074219 60.14914063 -16.5625 59.25 C-17.45130859 58.36183594 -18.34011719 57.47367188 -19.25585938 56.55859375 C-22.68368839 52.39888428 -22.68368839 52.39888428 -27 50 Z M28.4296875 55.3046875 C27.53378906 56.19800781 26.63789063 57.09132813 25.71484375 58.01171875 C25.24933105 58.4814209 24.78381836 58.95112305 24.30419922 59.43505859 C22.88072979 60.86922715 21.44692851 62.29243517 20.01171875 63.71484375 C18.67173828 65.05869141 18.67173828 65.05869141 17.3046875 66.4296875 C16.47952637 67.25710449 15.65436523 68.08452148 14.80419922 68.93701172 C12.78056154 70.79414233 12.78056154 70.79414233 13 73 C18.68376054 74.96348091 22.29109552 75.30811434 27.94921875 73.12890625 C31.79881183 71.00979692 34.0409888 67.91802239 36 64 C36.09608608 62.16871229 36.12982579 60.33380041 36.125 58.5 C36.12757813 57.5203125 36.13015625 56.540625 36.1328125 55.53125 C36.16940053 53.00568946 36.16940053 53.00568946 35 51 C31.82124887 51 30.63119012 53.10918703 28.4296875 55.3046875 Z " fill="#E00810" transform="translate(109,29)"/>
<path d="M0 0 C0.845625 0.474375 1.69125 0.94875 2.5625 1.4375 C6.04988842 2.24228194 7.72704132 0.72008517 10.765625 -0.96484375 C17.02302588 -3.86381444 23.65497787 -3.21944276 30.1875 -1.66796875 C32 -1 32 -1 34 1 C33.443125 2.3303125 33.443125 2.3303125 32.875 3.6875 C31.88853402 7.42197834 32.11549667 8.70211917 34 12 C36.98997825 13.49498913 39.70042775 13.11577446 43 13 C43.99 12.67 44.98 12.34 46 12 C48.70902434 19.13015206 49.55666967 27.34352726 47.1015625 34.6875 C46 36.875 46 36.875 44 40 C40 40 40 40 37.1875 38.125 C34.36583017 34.09404311 34.99826361 32.23766364 35.71484375 27.5625 C36.1683401 23.48724516 35.43679931 20.85323452 34 17 C31.11306638 13.41083928 28.53077879 11.00683973 24 10 C20.63646983 10.14489053 17.33118962 10.52134363 14 11 C13.77568714 13.2410341 13.77568714 13.2410341 15.96875 15.1640625 C16.8040625 15.97617187 17.639375 16.78828125 18.5 17.625 C19.3353125 18.44226563 20.170625 19.25953125 21.03125 20.1015625 C22.00578125 21.04128906 22.00578125 21.04128906 23 22 C20.20353996 25.12582089 19.44930881 25.93477775 15.125 26.5625 C10.41498305 26.3596341 8.25227434 24.25227434 5 21 C2.8148887 22.01451596 1.09040643 22.91629035 -0.6875 24.5625 C-4.20952362 26.75186603 -7.92387378 26.74741953 -12 27 C-11.896875 28.19625 -11.79375 29.3925 -11.6875 30.625 C-11.65644487 34.11559679 -12.2385682 35.83724368 -14.5 38.5 C-15.325 39.325 -16.15 40.15 -17 41 C-15.96785923 43.22307242 -15.05324158 44.94266292 -13.375 46.75 C-11.63124587 49.60341585 -11.60010189 51.71652207 -11.50390625 55 C-12.20485302 57.82586416 -13.8639447 59.10504401 -16 61 C-17.83947337 59.21427748 -19.67157741 57.42197551 -21.5 55.625 C-22.02464844 55.11710937 -22.54929687 54.60921875 -23.08984375 54.0859375 C-24.43153181 52.76167396 -25.71995815 51.38394135 -27 50 C-27 49.34 -27 48.68 -27 48 C-27.556875 47.773125 -28.11375 47.54625 -28.6875 47.3125 C-34.48186442 44.02380668 -38.55561245 38.46532884 -40.59765625 32.15234375 C-41.83647102 25.52528608 -41.75570577 18.20033798 -39 12 C-38.39671875 12.08378906 -37.7934375 12.16757812 -37.171875 12.25390625 C-36.37265625 12.35574219 -35.5734375 12.45757812 -34.75 12.5625 C-33.96109375 12.66691406 -33.1721875 12.77132812 -32.359375 12.87890625 C-29.99467126 13.00027349 -28.2488963 12.69633257 -26 12 C-25.23826608 7.6835078 -24.83936396 4.25566547 -26 0 C-17.1434652 -4.62080076 -9.06072676 -3.78738379 0 0 Z M-26 14 C-29.23630326 18.34878251 -29.3494413 22.39021943 -29.3984375 27.6328125 C-29.10173013 30.50170928 -29.10173013 30.50170928 -26 34 C-19.07 27.07 -12.14 20.14 -5 13 C-5.33 12.01 -5.66 11.02 -6 10 C-13.64778729 7.45073757 -19.94758904 8.64375838 -26 14 Z " fill="#070705" transform="translate(109,29)"/>
<path d="M0 0 C5.22680914 3.08451165 9.24932627 6.96732392 11.80859375 12.5390625 C13.0780058 17.69038195 12.89316102 22.68264221 12.80859375 27.96484375 C12.79957031 29.03476563 12.79054687 30.1046875 12.78125 31.20703125 C12.75778717 33.83486814 12.72495834 36.46223781 12.68359375 39.08984375 C8.30872044 39.17723366 3.93407297 39.23036775 -0.44140625 39.27734375 C-1.67890625 39.30248047 -2.91640625 39.32761719 -4.19140625 39.35351562 C-5.39023438 39.36318359 -6.5890625 39.37285156 -7.82421875 39.3828125 C-8.9239502 39.39852295 -10.02368164 39.4142334 -11.15673828 39.43041992 C-17.84708735 38.70927659 -21.72533116 35.17813833 -25.83203125 30.19921875 C-29.19389928 25.42182734 -29.79695433 20.68833063 -28.8515625 15.0703125 C-27.14370876 8.75000707 -23.55060925 4.82856018 -18.31640625 1.08984375 C-12.53511277 -1.62851279 -6.05069609 -2.37742359 0 0 Z M-18.31640625 13.08984375 C-19.925064 16.30715926 -19.78336758 19.60060495 -19.31640625 23.08984375 C-17.63067547 26.46130532 -16.46740152 28.49002932 -13.09765625 30.24609375 C-9.7770575 31.2534664 -6.96805884 31.28482663 -3.50390625 31.21484375 C-2.34246094 31.19679688 -1.18101562 31.17875 0.015625 31.16015625 C1.33626953 31.12535156 1.33626953 31.12535156 2.68359375 31.08984375 C2.76491562 28.52669876 2.8242355 25.96615957 2.87109375 23.40234375 C2.89623047 22.68111328 2.92136719 21.95988281 2.94726562 21.21679688 C3.01026606 16.61776484 2.56931671 13.71549568 -0.31640625 10.08984375 C-7.0680303 5.58876105 -13.05062711 7.56077566 -18.31640625 13.08984375 Z " fill="#DB0812" transform="translate(160.31640625,128.91015625)"/>
<path d="M0 0 C5.10619752 3.52570781 9.63834305 7.85252916 11.625 13.8125 C11.70766486 15.73156917 11.73240663 17.65339474 11.72265625 19.57421875 C11.71943359 20.69248047 11.71621094 21.81074219 11.71289062 22.96289062 C11.70032227 24.71375977 11.70032227 24.71375977 11.6875 26.5 C11.68298828 27.67884766 11.67847656 28.85769531 11.67382812 30.07226562 C11.66203273 32.98572789 11.6455727 35.89908863 11.625 38.8125 C7.27106096 38.92923963 2.91752789 38.99993418 -1.4375 39.0625 C-3.28118164 39.11277344 -3.28118164 39.11277344 -5.16210938 39.1640625 C-13.45006693 39.25342053 -18.14420792 38.73146079 -24.3359375 32.99609375 C-24.80257813 32.41988281 -25.26921875 31.84367187 -25.75 31.25 C-26.47316406 30.38181641 -26.47316406 30.38181641 -27.2109375 29.49609375 C-30.39982866 24.88397264 -29.88067412 19.16238558 -29.375 13.8125 C-27.58028933 7.113771 -23.20679901 3.27325957 -17.375 -0.1875 C-11.7337252 -2.06792493 -5.59316369 -1.967965 0 0 Z M-19.375 12.8125 C-20.87256381 17.30519144 -21.06018388 21.13760608 -19.25 25.5625 C-16.86532535 28.42410958 -14.82248474 29.39887016 -11.375 30.8125 C-7.71699968 31.17246043 -7.71699968 31.17246043 -4 31 C-2.13214844 30.95939453 -2.13214844 30.95939453 -0.2265625 30.91796875 C1.18496094 30.86576172 1.18496094 30.86576172 2.625 30.8125 C2.70665496 28.60479195 2.76448488 26.39619575 2.8125 24.1875 C2.84730469 22.95773438 2.88210937 21.72796875 2.91796875 20.4609375 C2.54052454 15.76049897 1.08084969 12.49232656 -2 8.9375 C-8.91753154 5.66077453 -14.39231372 7.45611225 -19.375 12.8125 Z " fill="#DC0711" transform="translate(46.375,129.1875)"/>
<path d="M0 0 C6 1 6 1 7.8125 2.875 C10.11281542 6.99135391 10.08749713 10.36265236 10 15 C12.22855574 15.0814222 14.45797655 15.13938079 16.6875 15.1875 C17.92886719 15.22230469 19.17023438 15.25710937 20.44921875 15.29296875 C24.21755418 14.98204999 26.00987908 14.24672069 29 12 C31.59423553 8.49778204 31.57838198 4.2161802 32 0 C34.97 0 37.94 0 41 0 C42.43896884 4.60470028 41.80457251 8.61288371 40 13 C38.18258733 15.82976456 36.17058331 18.43352413 34 21 C34.763125 21.61875 35.52625 22.2375 36.3125 22.875 C39.94118872 26.47276239 41.01986715 31.09933575 42 36 C42 37.32 42 38.64 42 40 C38.7 40 35.4 40 32 40 C31.7525 38.5975 31.505 37.195 31.25 35.75 C30.36657524 31.7367275 29.38105716 29.53579287 26 27 C22.99686252 25.49843126 20.20932478 25.90718796 16.875 25.9375 C13.471875 25.9684375 13.471875 25.9684375 10 26 C10 30.62 10 35.24 10 40 C6.7 40 3.4 40 0 40 C0 26.8 0 13.6 0 0 Z " fill="#D90A12" transform="translate(61,128)"/>
<path d="M0 0 C0.99 0.66 1.98 1.32 3 2 C2.71454928 5.42540866 2.17638186 6.8084997 -0.1875 9.375 C-3.78315977 11.45249231 -5.01207939 10.92028937 -9 10 C-15.55264176 9.31718358 -19.70077961 9.97259251 -25 14 C-28.23550498 18.38358739 -28.34991245 22.46550109 -28.3984375 27.73046875 C-27.91809229 30.46655276 -27.06489142 31.21903115 -25 33 C-24.54625 33.78375 -24.0925 34.5675 -23.625 35.375 C-21.75580564 38.39446782 -19.53843868 40.52200034 -17 43 C-13.74725374 46.25274626 -11.67770081 48.50113448 -11.4375 53.125 C-12.06522225 57.44930881 -12.87417911 58.20353996 -16 61 C-17.83947337 59.21427748 -19.67157741 57.42197551 -21.5 55.625 C-22.02464844 55.11710937 -22.54929687 54.60921875 -23.08984375 54.0859375 C-24.43153181 52.76167396 -25.71995815 51.38394135 -27 50 C-27 49.34 -27 48.68 -27 48 C-27.556875 47.773125 -28.11375 47.54625 -28.6875 47.3125 C-34.48186442 44.02380668 -38.55561245 38.46532884 -40.59765625 32.15234375 C-41.83647102 25.52528608 -41.75570577 18.20033798 -39 12 C-38.39671875 12.08378906 -37.7934375 12.16757812 -37.171875 12.25390625 C-36.37265625 12.35574219 -35.5734375 12.45757812 -34.75 12.5625 C-33.96109375 12.66691406 -33.1721875 12.77132812 -32.359375 12.87890625 C-29.99467126 13.00027349 -28.2488963 12.69633257 -26 12 C-25.23826608 7.6835078 -24.83936396 4.25566547 -26 0 C-17.27767764 -4.55077688 -8.91128534 -3.97272025 0 0 Z " fill="#097034" transform="translate(109,29)"/>
<path d="M0 0 C3.12606617 1.19544862 5.13999698 2.91948877 7.4375 5.3125 C8.04207031 5.93382812 8.64664063 6.55515625 9.26953125 7.1953125 C9.84058594 7.79085937 10.41164062 8.38640625 11 9 C14.50637018 12.60928577 14.50637018 12.60928577 18.5 15.625 C23.37655074 20.2577232 25.65203163 25.98535817 26.41796875 32.62109375 C26.56034662 39.02809792 26.21489993 43.34827432 23 49 C21.948125 48.608125 20.89625 48.21625 19.8125 47.8125 C16.11744427 46.68082098 16.11744427 46.68082098 13.125 48 C10.33691097 50.62408379 10.15135721 52.21606985 10 56 C10.36858988 58.76864953 10.36858988 58.76864953 11 61 C4.15912782 64.19582959 -4.03445122 64.41732565 -11.13671875 61.87890625 C-13.50802753 60.68479498 -15.76991974 59.43876146 -18 58 C-16.14356139 54.13794467 -14.57444674 51.53189977 -11 49 C-8.45127594 49.26734868 -6.11089758 49.91133272 -3.6328125 50.55859375 C0.7135595 51.28728817 4.19664153 50.11125205 8 48 C11.89344189 44.00922206 13.16995492 41.24173683 13.3125 35.75 C13.34988281 34.81671875 13.38726562 33.8834375 13.42578125 32.921875 C12.4978298 26.55391462 7.88762828 22.81061294 3.3125 18.6875 C-0.10273956 15.45668782 -2.68860044 12.84701314 -3.25 8 C-3.27004682 5.27363316 -2.8807021 3.64210629 -2 1 C-1.34 0.67 -0.68 0.34 0 0 Z " fill="#F4B50D" transform="translate(131,52)"/>
<path d="M0 0 C1.20366211 0.00483398 1.20366211 0.00483398 2.43164062 0.00976562 C3.68170898 0.02233398 3.68170898 0.02233398 4.95703125 0.03515625 C6.22450195 0.04192383 6.22450195 0.04192383 7.51757812 0.04882812 C9.6015928 0.06060222 11.68557102 0.07853735 13.76953125 0.09765625 C13.4182542 2.69710642 13.06486339 4.6516849 11.60546875 6.85546875 C8.95535862 8.64852199 6.55866803 8.67579216 3.39453125 8.97265625 C-0.75983742 9.54631072 -2.92989826 9.90112939 -6.48046875 12.22265625 C-8.87438553 16.15551953 -9.23046875 18.4672432 -9.23046875 23.09765625 C-7.98542279 26.21027115 -6.70625602 27.69395796 -4.16796875 29.84765625 C-1.2424387 31.09256265 0.6987806 31.32780878 3.83203125 31.53515625 C7.23256475 31.78817214 8.48608094 31.89716701 11.33203125 33.91015625 C12.74495596 36.06025907 13.22450843 37.62169542 13.76953125 40.09765625 C10.76797752 40.23381544 7.77271025 40.33229605 4.76953125 40.41015625 C3.93035156 40.45205078 3.09117188 40.49394531 2.2265625 40.53710938 C-4.1365668 40.66042583 -8.35681959 39.25257807 -13.23046875 35.09765625 C-17.71758547 30.01169632 -19.66901728 25.36351741 -19.5703125 18.640625 C-18.84344022 13.20161521 -16.42140272 8.19270689 -12.4453125 4.390625 C-8.38245028 1.39739105 -4.99150472 -0.03540074 0 0 Z " fill="#D60911" transform="translate(120.23046875,127.90234375)"/>
<path d="M0 0 C3.86463725 0.41406828 6.12722 2.52621722 9 5 C8.835 5.78375 8.67 6.5675 8.5 7.375 C7.27302368 16.1519327 7.27302368 16.1519327 9.75 24.4375 C12.66568868 27.75814544 14.80437946 29.60145982 19 31 C20.72795352 31.06802967 22.45835365 31.08495645 24.1875 31.0625 C25.08855469 31.05347656 25.98960938 31.04445313 26.91796875 31.03515625 C27.94857422 31.01775391 27.94857422 31.01775391 29 31 C29 31.66 29 32.32 29 33 C29.99 33.66 30.98 34.32 32 35 C30.02 36.32 28.04 37.64 26 39 C28.97 39 31.94 39 35 39 C35.33 37.68 35.66 36.36 36 35 C37.32 35.99 38.64 36.98 40 38 C38.60922699 38.82113177 37.21211107 39.63152495 35.8125 40.4375 C35.03519531 40.88996094 34.25789063 41.34242187 33.45703125 41.80859375 C28.00301005 44.45323042 21.53748885 45.03653847 15.70703125 43.328125 C13.7834414 42.60635323 11.88842421 41.80932466 10 41 C10.11859375 40.39671875 10.2371875 39.7934375 10.359375 39.171875 C11.27535378 34.08354361 11.27535378 34.08354361 9.4375 29.4375 C6.37494461 27.63137759 4.51010398 27.70749134 1 28 C-0.32 28 -1.64 28 -3 28 C-6.23694124 20.51457338 -6.02007499 12.88186308 -3.0625 5.375 C-1.24507042 1.24507042 -1.24507042 1.24507042 0 0 Z " fill="#DC0811" transform="translate(73,72)"/>
<path d="M0 0 C0.88365234 0.00902344 1.76730469 0.01804687 2.67773438 0.02734375 C4.84777359 0.05080363 7.01767247 0.08667135 9.1875 0.125 C7.4296875 5.8984375 7.4296875 5.8984375 5.25 7.9375 C2.15475073 9.1376987 -0.02660534 9.3275237 -3.3125 9.5 C-7.41387305 9.76531793 -8.54503167 9.92172407 -11.9375 12.5 C-15.52465832 17.52202165 -15.07838366 22.85770995 -15.15429688 28.7890625 C-15.29777351 32.60620834 -15.61592998 34.77978223 -17.54296875 38.1640625 C-20.27378165 40.52356005 -21.33106061 40.30593825 -24.8125 40.125 C-24.90075361 36.64599751 -24.95330635 33.16728883 -25 29.6875 C-25.02513672 28.71361328 -25.05027344 27.73972656 -25.07617188 26.73632812 C-25.14956355 19.42162473 -24.46860723 12.89516168 -20.1640625 6.78515625 C-19.30941406 5.99431641 -19.30941406 5.99431641 -18.4375 5.1875 C-17.59058594 4.36958984 -17.59058594 4.36958984 -16.7265625 3.53515625 C-11.41530104 -0.37783434 -6.34219615 -0.12296577 0 0 Z " fill="#D80811" transform="translate(200.8125,127.875)"/>
<path d="M0 0 C-0.66 2.64 -1.32 5.28 -2 8 C-2.58265625 7.89300781 -3.1653125 7.78601562 -3.765625 7.67578125 C-11.07416673 6.60707939 -16.98324469 7.86603833 -24 10 C-24 10.66 -24 11.32 -24 12 C-24.99 12 -25.98 12 -27 12 C-27.33 13.32 -27.66 14.64 -28 16 C-28.66 16 -29.32 16 -30 16 C-30.061875 16.5775 -30.12375 17.155 -30.1875 17.75 C-31.38339014 21.06169578 -33.01643559 22.18391731 -36 24 C-41.98550725 24.50724638 -41.98550725 24.50724638 -45 23 C-43.40907948 18.86360664 -40.39525082 15.76786752 -37 13 C-36.34 13 -35.68 13 -35 13 C-35 12.34 -35 11.68 -35 11 C-33.34997172 9.64613064 -31.6825613 8.31321858 -30 7 C-29.67 6.34 -29.34 5.68 -29 5 C-26.525 5.495 -26.525 5.495 -24 6 C-24.33 4.68 -24.66 3.36 -25 2 C-16.04573725 -1.88581214 -9.39840147 -3.13280049 0 0 Z " fill="#1D1D19" transform="translate(141,30)"/>
<path d="M0 0 C3.96 0.99 3.96 0.99 8 2 C6.02 2.99 6.02 2.99 4 4 C3.01 3.34 2.02 2.68 1 2 C1.185625 2.804375 1.37125 3.60875 1.5625 4.4375 C1.706875 5.283125 1.85125 6.12875 2 7 C1.67 7.33 1.34 7.66 1 8 C0.11309609 16.67646229 0.11309609 16.67646229 2.6875 24.75 C5.20412537 27.19860847 6.53266462 27.80737026 10 28 C10 28.66 10 29.32 10 30 C10.66 30 11.32 30 12 30 C12.33 30.66 12.66 31.32 13 32 C13.33 30.35 13.66 28.7 14 27 C13.01 26.67 12.02 26.34 11 26 C8.23227623 19.59053442 8.81416065 12.86573154 9 6 C9.66 6 10.32 6 11 6 C10.96519531 6.83144531 10.93039063 7.66289063 10.89453125 8.51953125 C10.86746094 9.60621094 10.84039062 10.69289063 10.8125 11.8125 C10.77769531 12.89144531 10.74289063 13.97039063 10.70703125 15.08203125 C10.72746067 17.99491726 10.72746067 17.99491726 12.42578125 19.73828125 C12.94527344 20.15464844 13.46476562 20.57101563 14 21 C14.45375 21.78375 14.9075 22.5675 15.375 23.375 C17.24419436 26.39446782 19.46156132 28.52200034 22 31 C25.25274626 34.25274626 27.32229919 36.50113448 27.5625 41.125 C26.93477775 45.44930881 26.12582089 46.20353996 23 49 C21.16052663 47.21427748 19.32842259 45.42197551 17.5 43.625 C16.97535156 43.11710937 16.45070313 42.60921875 15.91015625 42.0859375 C14.56846819 40.76167396 13.28004185 39.38394135 12 38 C12 37.34 12 36.68 12 36 C11.443125 35.773125 10.88625 35.54625 10.3125 35.3125 C4.51813558 32.02380668 0.44438755 26.46532884 -1.59765625 20.15234375 C-2.83647102 13.52528608 -2.75570577 6.20033798 0 0 Z " fill="#156631" transform="translate(70,41)"/>
<path d="M0 0 C1.98 0 3.96 0 6 0 C7.98960773 3.3183077 8.2361745 5.79959699 8.1953125 9.640625 C8.18886719 10.71054688 8.18242187 11.78046875 8.17578125 12.8828125 C8.15902344 13.99398437 8.14226562 15.10515625 8.125 16.25 C8.11597656 17.37664062 8.10695312 18.50328125 8.09765625 19.6640625 C8.07410658 22.44292365 8.0412168 25.2213539 8 28 C4.27098186 28.08736736 0.54222835 28.14051482 -3.1875 28.1875 C-4.77014648 28.22520508 -4.77014648 28.22520508 -6.38476562 28.26367188 C-7.91713867 28.27817383 -7.91713867 28.27817383 -9.48046875 28.29296875 C-10.41785889 28.3086792 -11.35524902 28.32438965 -12.32104492 28.34057617 C-15.49326811 27.93729071 -17.38735754 26.79632118 -20 25 C-19.67 24.34 -19.34 23.68 -19 23 C-14.53351439 21.93367686 -10.19991621 21.89434041 -5.625 21.9375 C-2.345625 21.9684375 -2.345625 21.9684375 1 22 C0.67 14.74 0.34 7.48 0 0 Z " fill="#E10611" transform="translate(163,139)"/>
<path d="M0 0 C3.17214683 0.1714674 4.71307614 0.75785917 7.15234375 2.81640625 C9.97486121 7.67972915 9.42506339 12.30136995 9.25 17.8125 C9.23195313 18.88693359 9.21390625 19.96136719 9.1953125 21.06835938 C9.14830337 23.71262321 9.07656366 26.35642683 9 29 C2.73 29 -3.54 29 -10 29 C-9.67 28.01 -9.34 27.02 -9 26 C-7.02 25.67 -5.04 25.34 -3 25 C-6.96 24.67 -10.92 24.34 -15 24 C-15 23.67 -15 23.34 -15 23 C-10.05 22.67 -5.1 22.34 0 22 C0.0269501 19.06243881 0.04681474 16.12512445 0.0625 13.1875 C0.07087891 12.35412109 0.07925781 11.52074219 0.08789062 10.66210938 C0.09111328 9.85966797 0.09433594 9.05722656 0.09765625 8.23046875 C0.10289307 7.49207764 0.10812988 6.75368652 0.11352539 5.99291992 C0.07523213 3.78942591 0.07523213 3.78942591 -1 1 C-0.67 0.67 -0.34 0.34 0 0 Z " fill="#E20610" transform="translate(48,138)"/>
<path d="M0 0 C1.67306673 3.34613347 1.55327351 7.06840131 1.8125 10.75 C1.88919922 11.54921875 1.96589844 12.3484375 2.04492188 13.171875 C2.43250626 18.85021971 1.65043041 21.60530708 -2 26 C-4.46800047 24.84826645 -6.04783565 23.95216435 -8 22 C-8.11985383 19.17612681 -8.13976156 16.44387648 -8.0625 13.625 C-8.02787687 12.09645291 -7.99778248 10.56779519 -7.97265625 9.0390625 C-7.95468994 8.36053223 -7.93672363 7.68200195 -7.91821289 6.98291016 C-8.00538036 4.86955431 -8.42130559 3.02954167 -9 1 C-5.94152152 0.45627049 -3.11227195 0 0 0 Z " fill="#1C1D18" transform="translate(154,44)"/>
<path d="M0 0 C4.99743827 1.85090306 7.97181351 5.78165244 10.140625 10.4609375 C11.3903713 15.60762 11.20943067 20.60133043 11.125 25.875 C11.11597656 26.94492188 11.10695312 28.01484375 11.09765625 29.1171875 C11.07419342 31.74502439 11.04136459 34.37239406 11 37 C6.62512669 37.08738991 2.25047922 37.140524 -2.125 37.1875 C-3.3625 37.21263672 -4.6 37.23777344 -5.875 37.26367188 C-7.07382813 37.27333984 -8.27265625 37.28300781 -9.5078125 37.29296875 C-10.60754395 37.3086792 -11.70727539 37.32438965 -12.84033203 37.34057617 C-16.48735943 36.94746821 -18.87603842 35.8938407 -22 34 C-23 31.9375 -23 31.9375 -23 30 C-22.34 29.34 -21.68 28.68 -21 28 C-20.67 28 -20.34 28 -20 28 C-20 26.35 -20 24.7 -20 23 C-19.236875 23.639375 -18.47375 24.27875 -17.6875 24.9375 C-13.63686897 28.04612382 -10.29586184 28.21711849 -5.3125 28.5625 C-3.229375 28.706875 -1.14625 28.85125 1 29 C0.67 23.39 0.34 17.78 0 12 C0.66 12 1.32 12 2 12 C2 17.94 2 23.88 2 30 C-1.45052083 30.22786458 -4.90104167 30.45572917 -8.3515625 30.68359375 C-11.61532388 30.96663944 -14.77943859 31.41038953 -18 32 C-17.67 32.66 -17.34 33.32 -17 34 C-14.01632274 34.99455909 -11.7995808 35.19559632 -8.67578125 35.31640625 C-7.13374023 35.37924805 -7.13374023 35.37924805 -5.56054688 35.44335938 C-4.48869141 35.48267578 -3.41683594 35.52199219 -2.3125 35.5625 C-1.22904297 35.60568359 -0.14558594 35.64886719 0.97070312 35.69335938 C3.64700791 35.79946838 6.32340526 35.90152361 9 36 C8.91874844 32.12416586 8.80593581 28.2498621 8.6875 24.375 C8.66494141 23.28058594 8.64238281 22.18617188 8.61914062 21.05859375 C8.39255058 14.26089236 8.03557024 9.03557024 3 4 C1.68252676 3.30251417 0.35085807 2.63040043 -1 2 C-0.67 1.34 -0.34 0.68 0 0 Z " fill="#C70D13" transform="translate(162,131)"/>
<path d="M0 0 C3.88510769 2.1330003 6.59888519 4.26493252 9 8 C6.69 10.31 4.38 12.62 2 15 C-1.5368805 13.23155975 -3.53364147 11.81749546 -6.3125 9.125 C-7.03050781 8.44695312 -7.74851562 7.76890625 -8.48828125 7.0703125 C-10 5 -10 5 -9.91796875 2.8046875 C-8.02188024 -0.92294182 -3.66622938 -0.35943425 0 0 Z " fill="#F3B313" transform="translate(104,86)"/>
<path d="M0 0 C1.17825358 0.90172468 2.34231577 1.82201502 3.5 2.75 C4.1496875 3.26046875 4.799375 3.7709375 5.46875 4.296875 C7 6 7 6 7 10 C5.1015625 12.359375 5.1015625 12.359375 2.625 14.75 C1.40683594 15.94882813 1.40683594 15.94882813 0.1640625 17.171875 C-2 19 -2 19 -4 19 C-4 18.34 -4 17.68 -4 17 C-4.99 16.67 -5.98 16.34 -7 16 C-7.29629261 10.96302555 -7.0710449 8.05816648 -4 4 C-2.70420353 2.63015802 -1.38007251 1.2848951 0 0 Z " fill="#1D1C15" transform="translate(135,71)"/>
<path d="M0 0 C0.78552246 0.01047363 1.57104492 0.02094727 2.38037109 0.03173828 C3.23115234 0.03818359 4.08193359 0.04462891 4.95849609 0.05126953 C6.29267578 0.07640625 6.29267578 0.07640625 7.65380859 0.10205078 C8.99958984 0.11558594 8.99958984 0.11558594 10.37255859 0.12939453 C12.59157445 0.15300108 14.81005937 0.18592768 17.02880859 0.22705078 C16.25537109 5.00830078 16.25537109 5.00830078 14.21630859 6.97705078 C10.7061471 8.98285735 7.47454427 9.38064016 3.46630859 9.41455078 C2.3196875 9.43582031 2.3196875 9.43582031 1.14990234 9.45751953 C-0.97119141 9.22705078 -0.97119141 9.22705078 -3.97119141 7.22705078 C-4.28369141 4.72705078 -4.28369141 4.72705078 -3.97119141 2.22705078 C-1.97119141 0.22705078 -1.97119141 0.22705078 0 0 Z " fill="#D40B14" transform="translate(189.97119140625,143.77294921875)"/>
<path d="M0 0 C2.99269417 1.23165031 4.68461428 3.12531877 6.9140625 5.453125 C8.11289063 6.69255859 8.11289063 6.69255859 9.3359375 7.95703125 C9.93921875 8.59511719 10.5425 9.23320313 11.1640625 9.890625 C8.40103132 12.96610538 7.59210989 13.8204533 3.3515625 14.515625 C-1.67171676 14.30828514 -4.50519745 11.38790206 -7.8359375 7.890625 C-3.96915584 -0.23646035 -3.96915584 -0.23646035 0 0 Z " fill="#19662C" transform="translate(120.8359375,41.109375)"/>
<path d="M0 0 C1.32 0.66 2.64 1.32 4 2 C4.76681614 10.62242152 4.76681614 10.62242152 2.88671875 14 C1.5 15.625 1.5 15.625 -1 18 C-4.77800868 17.46028447 -6.71576111 16.04565185 -9 13 C-8.73841268 8.58934706 -7.09604623 6.64550361 -3.9375 3.6875 C-3.20402344 2.99011719 -2.47054687 2.29273438 -1.71484375 1.57421875 C-1.14894531 1.05472656 -0.58304688 0.53523438 0 0 Z " fill="#DA0A13" transform="translate(93,52)"/>
<path d="M0 0 C5.9026542 1.85511989 9.62538267 5.93807401 13 11 C14.0592918 14.17787541 14.11458939 16.42588943 14.09765625 19.76171875 C14.09443359 20.87998047 14.09121094 21.99824219 14.08789062 23.15039062 C14.07951172 24.31763672 14.07113281 25.48488281 14.0625 26.6875 C14.05798828 27.86634766 14.05347656 29.04519531 14.04882812 30.25976562 C14.03703273 33.17322789 14.0205727 36.08658863 14 39 C9.56255461 39.05793591 5.12520611 39.09357467 0.6875 39.125 C-0.57513672 39.14175781 -1.83777344 39.15851563 -3.13867188 39.17578125 C-4.95141602 39.18544922 -4.95141602 39.18544922 -6.80078125 39.1953125 C-7.91622314 39.20578613 -9.03166504 39.21625977 -10.1809082 39.22705078 C-13 39 -13 39 -16 37 C-6.43 37.33 3.14 37.66 13 38 C12.87625 32.4621875 12.87625 32.4621875 12.75 26.8125 C12.73420898 25.6572583 12.71841797 24.5020166 12.70214844 23.31176758 C12.51645028 17.21218641 12.51645028 17.21218641 9.953125 11.76171875 C9.30859375 11.18035156 8.6640625 10.59898437 8 10 C6.68 10.33 5.36 10.66 4 11 C4.33 12.98 4.66 14.96 5 17 C4.34 16.01 3.68 15.02 3 14 C0.12636494 10.45021552 -1.81030617 8.73732544 -6.3125 8.1875 C-8.1378125 8.0946875 -8.1378125 8.0946875 -10 8 C-10 7.67 -10 7.34 -10 7 C-8.58344207 6.9727585 -7.16672955 6.95349533 -5.75 6.9375 C-4.56664062 6.92009766 -4.56664062 6.92009766 -3.359375 6.90234375 C-1.09308998 6.99614694 0.8288895 7.36758937 3 8 C3.15811388 4.94729537 3.15811388 4.94729537 2 2 C1.34 2 0.68 2 0 2 C0 1.34 0 0.68 0 0 Z " fill="#C50F14" transform="translate(44,129)"/>
<path d="M0 0 C2.97 0 5.94 0 9 0 C10.05404945 3.98196457 9.84098656 6.98195309 9 11 C8.67 11 8.34 11 8 11 C8 7.7 8 4.4 8 1 C7.896875 1.763125 7.79375 2.52625 7.6875 3.3125 C6.93631677 6.24894352 6.21690342 7.04912499 4 9 C3.01 10.485 3.01 10.485 2 12 C0.6846659 12.70151152 -0.65117592 13.36525925 -2 14 C-2.51304688 14.51175781 -3.02609375 15.02351562 -3.5546875 15.55078125 C-7.32107654 17.78293833 -10.96221448 17.31814347 -15.25 17.1875 C-16.09046875 17.17396484 -16.9309375 17.16042969 -17.796875 17.14648438 C-19.86485938 17.11123464 -21.93251271 17.0574302 -24 17 C-24 13.04 -24 9.08 -24 5 C-21.5705484 8.6441774 -21.83820425 10.71241272 -22 15 C-19.77144426 15.0814222 -17.54202345 15.13938079 -15.3125 15.1875 C-14.07113281 15.22230469 -12.82976562 15.25710937 -11.55078125 15.29296875 C-7.78244582 14.98204999 -5.99012092 14.24672069 -3 12 C-0.40576447 8.49778204 -0.42161802 4.2161802 0 0 Z " fill="#C30E14" transform="translate(93,128)"/>
<path d="M0 0 C2.64 0 5.28 0 8 0 C8 4.29 8 8.58 8 13 C4.7 12.67 1.4 12.34 -2 12 C-1.34 8.04 -0.68 4.08 0 0 Z " fill="#FAB701" transform="translate(147,85)"/>
<path d="M0 0 C0.66 0 1.32 0 2 0 C4.65436438 4.56087213 4.43254226 8.85108343 4 14 C3 17.125 3 17.125 2 19 C3.093125 18.979375 4.18625 18.95875 5.3125 18.9375 C9 19 9 19 12 20 C11.67 20.99 11.34 21.98 11 23 C9.948125 22.608125 8.89625 22.21625 7.8125 21.8125 C4.11744427 20.68082098 4.11744427 20.68082098 1.125 22 C-1.66308903 24.62408379 -1.84864279 26.21606985 -2 30 C-1.63141012 32.76864953 -1.63141012 32.76864953 -1 35 C-1.99 34.67 -2.98 34.34 -4 34 C-4 31.03 -4 28.06 -4 25 C-5.32 24.67 -6.64 24.34 -8 24 C-7.071875 23.443125 -6.14375 22.88625 -5.1875 22.3125 C-1.83692243 19.88168882 -0.46693193 18.83032227 1 15 C1.41040964 9.89268005 1.4429593 4.94562664 0 0 Z " fill="#EBB229" transform="translate(143,78)"/>
<path d="M0 0 C0 0.66 0 1.32 0 2 C-0.64066406 1.90460937 -1.28132813 1.80921875 -1.94140625 1.7109375 C-7.59859035 0.98587367 -11.64097591 1.0194911 -17 3 C-17.33 5.97 -17.66 8.94 -18 12 C-17.01 11.34 -16.02 10.68 -15 10 C-14.01 10 -13.02 10 -12 10 C-12 9.34 -12 8.68 -12 8 C-8.7 8.66 -5.4 9.32 -2 10 C-2 10.66 -2 11.32 -2 12 C-3.06927734 11.93039063 -3.06927734 11.93039063 -4.16015625 11.859375 C-10.77078581 11.61025302 -14.65229411 12.01766582 -20 16 C-20.66 16.99 -21.32 17.98 -22 19 C-24 18 -24 18 -25 15 C-23.68 14.67 -22.36 14.34 -21 14 C-20.23826608 9.6835078 -19.83936396 6.25566547 -21 2 C-14.15596715 -1.57079975 -7.46887895 -2.12905975 0 0 Z " fill="#135D30" transform="translate(104,27)"/>
<path d="M0 0 C2.875 0.1875 2.875 0.1875 6 1 C7.5 3.3125 7.5 3.3125 8 6 C7.375 8.25 7.375 8.25 6 10 C3.55921111 11.13903482 2.40096591 11.11456169 -0.1875 10.375 C-2 9 -2 9 -2.9375 6.625 C-3.01450945 3.39060303 -2.15650737 2.32902796 0 0 Z " fill="#FAB705" transform="translate(146,101)"/>
<path d="M0 0 C3 0.25 3 0.25 5 2.25 C4.625 5.875 4.625 5.875 4 9.25 C0.625 9.875 0.625 9.875 -3 10.25 C-5 8.25 -5 8.25 -5.25 5.25 C-4.90584825 1.120179 -4.129821 0.34415175 0 0 Z " fill="#CE0B11" transform="translate(77,101.75)"/>
<path d="M0 0 C2.9375 1 2.9375 1 4.3125 3.5625 C4.51875 4.366875 4.725 5.17125 4.9375 6 C3.2875 7.65 1.6375 9.3 -0.0625 11 C-2.5 10.375 -2.5 10.375 -5.0625 9 C-6.0625 6.0625 -6.0625 6.0625 -6.0625 3 C-4.41134212 -0.01093496 -3.42801339 0 0 0 Z " fill="#040403" transform="translate(149.0625,30)"/>
<path d="M0 0 C0.33 0 0.66 0 1 0 C1.33 4.62 1.66 9.24 2 14 C3.65 13.67 5.3 13.34 7 13 C7 10.36 7 7.72 7 5 C7.33 5 7.66 5 8 5 C8.13277344 5.61488281 8.26554687 6.22976562 8.40234375 6.86328125 C8.57894531 7.67152344 8.75554688 8.47976562 8.9375 9.3125 C9.11152344 10.11300781 9.28554688 10.91351563 9.46484375 11.73828125 C9.99886159 14.145401 9.99886159 14.145401 11 17 C11.99 17.33 12.98 17.66 14 18 C11.33059475 19.33470263 9.86667247 18.57333449 7 18 C6.34 18.33 5.68 18.66 5 19 C4.34 18.67 3.68 18.34 3 18 C2.67 18.66 2.34 19.32 2 20 C-1.56930669 14.49731886 -1.51765298 9.34124904 -1 3 C-0.67 2.01 -0.34 1.02 0 0 Z " fill="#C70E16" transform="translate(18,140)"/>
<path d="M0 0 C3.625 0.375 3.625 0.375 7 1 C7.625 3.8125 7.625 3.8125 8 7 C7.01 8.485 7.01 8.485 6 10 C3 10.3125 3 10.3125 0 10 C-2 8 -2 8 -2.25 5 C-2 2 -2 2 0 0 Z " fill="#096C32" transform="translate(74,30)"/>
<path d="M0 0 C2 2 2 2 2 5 C0.35 5.66 -1.3 6.32 -3 7 C-3 7.66 -3 8.32 -3 9 C-2.34 9.66 -1.68 10.32 -1 11 C-1.99 11 -2.98 11 -4 11 C-4.33 11.99 -4.66 12.98 -5 14 C-9.455 14.495 -9.455 14.495 -14 15 C-14.33 14.34 -14.66 13.68 -15 13 C-13.02 12.01 -11.04 11.02 -9 10 C-11.97 9.505 -11.97 9.505 -15 9 C-13.68 8.67 -12.36 8.34 -11 8 C-11 7.34 -11 6.68 -11 6 C-8.03 6.495 -8.03 6.495 -5 7 C-5 6.34 -5 5.68 -5 5 C-3.68 5 -2.36 5 -1 5 C-0.67 3.35 -0.34 1.7 0 0 Z " fill="#E30614" transform="translate(113,97)"/>
<path d="M0 0 C4.99743827 1.85090306 7.97181351 5.78165244 10.140625 10.4609375 C11.3903713 15.60762 11.20943067 20.60133043 11.125 25.875 C11.11597656 26.94492188 11.10695312 28.01484375 11.09765625 29.1171875 C11.07419342 31.74502439 11.04136459 34.37239406 11 37 C10.34 37 9.68 37 9 37 C8.98541748 36.27409668 8.97083496 35.54819336 8.95581055 34.80029297 C8.88105141 31.49134268 8.7844821 28.18337048 8.6875 24.875 C8.66494141 23.73289063 8.64238281 22.59078125 8.61914062 21.4140625 C8.39763744 14.4870537 8.13473587 9.13473587 3 4 C1.68252676 3.30251417 0.35085807 2.63040043 -1 2 C-0.67 1.34 -0.34 0.68 0 0 Z " fill="#BB1015" transform="translate(162,131)"/>
<path d="M0 0 C0.33 0.66 0.66 1.32 1 2 C1.66 2 2.32 2 3 2 C6 5.46153846 6 5.46153846 6 8 C5.01 8.33 4.02 8.66 3 9 C1.65599167 8.01439389 0.32392972 7.01241685 -1 6 C-3.64934822 5.28566879 -3.64934822 5.28566879 -6 5 C-6 4.34 -6 3.68 -6 3 C-9.465 4.485 -9.465 4.485 -13 6 C-13.66 4.68 -14.32 3.36 -15 2 C-10.25951336 1.34613977 -5.78945947 1 -1 1 C-0.67 0.67 -0.34 0.34 0 0 Z " fill="#E50614" transform="translate(43,129)"/>
<path d="M0 0 C0.99 0.33 1.98 0.66 3 1 C3.33 1.99 3.66 2.98 4 4 C2.40207236 5.65189143 0.79644124 7.2963339 -0.8125 8.9375 C-1.70582031 9.85402344 -2.59914063 10.77054688 -3.51953125 11.71484375 C-6 14 -6 14 -9 15 C-9 14.34 -9 13.68 -9 13 C-8.34 13 -7.68 13 -7 13 C-7.66 11.68 -8.32 10.36 -9 9 C-8.01 8.67 -7.02 8.34 -6 8 C-5.34 8.33 -4.68 8.66 -4 9 C-3.690625 8.05125 -3.38125 7.1025 -3.0625 6.125 C-2 3 -2 3 -1 1 C-2.41791408 1.45445964 -3.83428046 1.91374944 -5.25 2.375 C-6.03890625 2.63023438 -6.8278125 2.88546875 -7.640625 3.1484375 C-9.86627958 3.95173667 -11.90931672 4.89711662 -14 6 C-9.61770369 0.3030148 -7.15721935 -0.48187219 0 0 Z " fill="#C40E13" transform="translate(128,87)"/>
<path d="M0 0 C6.27 0 12.54 0 19 0 C17 6 17 6 15.0625 7.875 C10.42373409 9.57903646 5.88862854 9.23116107 1 9 C1 8.34 1 7.68 1 7 C4.63 7 8.26 7 12 7 C12 6.34 12 5.68 12 5 C12.99 5 13.98 5 15 5 C14.67 4.34 14.34 3.68 14 3 C11.66255706 2.53193355 9.30260921 2.17330206 6.9375 1.875 C5.64714844 1.70742187 4.35679687 1.53984375 3.02734375 1.3671875 C2.02832031 1.24601563 1.02929688 1.12484375 0 1 C0 0.67 0 0.34 0 0 Z " fill="#C10F14" transform="translate(191,128)"/>
<path d="M0 0 C5.94 0 11.88 0 18 0 C16.83636364 5.81818182 16.83636364 5.81818182 14 8 C10.98509443 9.00496852 8.95818308 9.10335303 5.8125 9.0625 C4.91144531 9.05347656 4.01039062 9.04445312 3.08203125 9.03515625 C2.39496094 9.02355469 1.70789063 9.01195312 1 9 C1.33 8.01 1.66 7.02 2 6 C4.64 6.33 7.28 6.66 10 7 C10.33 5.35 10.66 3.7 11 2 C12.65 2.33 14.3 2.66 16 3 C16 2.34 16 1.68 16 1 C10.72 1 5.44 1 0 1 C0 0.67 0 0.34 0 0 Z " fill="#C11013" transform="translate(116,128)"/>
<path d="M0 0 C0 0.66 0 1.32 0 2 C-0.66 2 -1.32 2 -2 2 C-2.66 5.63 -3.32 9.26 -4 13 C-5.32 13 -6.64 13 -8 13 C-8 17.29 -8 21.58 -8 26 C-10.71856454 23.28143546 -10.69988269 21.17635558 -11.0234375 17.4375 C-10.9593527 10.77268058 -7.66726268 6.11179053 -3.40234375 1.25 C-2 0 -2 0 0 0 Z " fill="#C30D14" transform="translate(142,131)"/>
<path d="M0 0 C0.99386719 0.00902344 1.98773438 0.01804687 3.01171875 0.02734375 C4.15060547 0.04474609 4.15060547 0.04474609 5.3125 0.0625 C4.9825 1.0525 4.6525 2.0425 4.3125 3.0625 C-0.3075 3.0625 -4.9275 3.0625 -9.6875 3.0625 C-9.0275 4.3825 -8.3675 5.7025 -7.6875 7.0625 C-8.6775 7.3925 -9.6675 7.7225 -10.6875 8.0625 C-10.6875 7.4025 -10.6875 6.7425 -10.6875 6.0625 C-11.6775 6.0625 -12.6675 6.0625 -13.6875 6.0625 C-14.0175 8.0425 -14.3475 10.0225 -14.6875 12.0625 C-16.0075 12.0625 -17.3275 12.0625 -18.6875 12.0625 C-17.37864898 6.49988316 -13.29864029 3.9478868 -8.6875 1.0625 C-5.53819107 0.01273036 -3.29935544 -0.03881595 0 0 Z " fill="#C70C10" transform="translate(37.6875,127.9375)"/>
<path d="M0 0 C4.84280425 2.08451139 7.50905385 5.4198732 10 10 C10.75020974 13.10161339 10.543903 14.73658199 10 18 C8.68 19.32 7.36 20.64 6 22 C3.03 19.03 0.06 16.06 -3 13 C-2.34 12.67 -1.68 12.34 -1 12 C-0.236875 12.78375 0.52625 13.5675 1.3125 14.375 C3.90891805 17.07257717 3.90891805 17.07257717 7 19 C7.62097883 14.74185942 7.92093799 11.36409612 5.44140625 7.69140625 C4.17495223 6.30263877 2.87218733 4.94589827 1.53125 3.62890625 C0 2 0 2 0 0 Z " fill="#215D2C" transform="translate(87,68)"/>
<path d="M0 0 C0.6875 2.3125 0.6875 2.3125 1 5 C-0.4375 6.8125 -0.4375 6.8125 -2 8 C-1.505 7.67 -1.01 7.34 -0.5 7 C3.09090894 5.56363642 6.14456127 5.87148538 10 6 C10.33 6.66 10.66 7.32 11 8 C10.11248047 8.03867188 10.11248047 8.03867188 9.20703125 8.078125 C3.91337489 8.45809381 0.89392143 9.10607857 -3 13 C-3.66 13.66 -4.32 14.32 -5 15 C-4.88601335 13.37419034 -4.75844341 11.74932843 -4.625 10.125 C-4.55539063 9.22007812 -4.48578125 8.31515625 -4.4140625 7.3828125 C-4 5 -4 5 -2 3 C-2.66 2.34 -3.32 1.68 -4 1 C-2 0 -2 0 0 0 Z " fill="#C50D13" transform="translate(146,129)"/>
<path d="M0 0 C3.465 1.485 3.465 1.485 7 3 C7 3.99 7 4.98 7 6 C3.62637846 8.60250805 1.23092172 9.36265043 -3 9 C-3 8.01 -3 7.02 -3 6 C-2.34 6 -1.68 6 -1 6 C-1.0309375 4.7934375 -1.0309375 4.7934375 -1.0625 3.5625 C-1 1 -1 1 0 0 Z " fill="#E30512" transform="translate(88,104)"/>
<path d="M0 0 C0.556875 0.7425 1.11375 1.485 1.6875 2.25 C4.72919198 5.86714722 8.08360369 8.38906913 12 11 C10.68 11.33 9.36 11.66 8 12 C7.67 13.65 7.34 15.3 7 17 C6.34 17 5.68 17 5 17 C4.57682292 14.98177083 4.15364583 12.96354167 3.73046875 10.9453125 C3.07691162 8.62953451 3.07691162 8.62953451 0 7 C-1.9896995 6.60986284 -3.99019869 6.26797351 -6 6 C-6 5.67 -6 5.34 -6 5 C-4.02 5 -2.04 5 0 5 C0 3.35 0 1.7 0 0 Z " fill="#B81115" transform="translate(80,93)"/>
<path d="M0 0 C2.125 0.375 2.125 0.375 4 1 C2.35 2.65 0.7 4.3 -1 6 C-0.38125 5.79375 0.2375 5.5875 0.875 5.375 C1.57625 5.25125 2.2775 5.1275 3 5 C3.66 5.66 4.32 6.32 5 7 C5.99 6.34 6.98 5.68 8 5 C8.66 5.66 9.32 6.32 10 7 C9.67 7.99 9.34 8.98 9 10 C1.71149675 10.48590022 1.71149675 10.48590022 -1.5625 8.25 C-3 6 -3 6 -2.875 3.875 C-2 2 -2 2 0 0 Z " fill="#097234" transform="translate(119,43)"/>
<path d="M0 0 C0.33 1.65 0.66 3.3 1 5 C-1.475 4.505 -1.475 4.505 -4 4 C-4.2475 4.61875 -4.495 5.2375 -4.75 5.875 C-6.20628639 8.35068687 -7.37812506 8.95125002 -10 10 C-10 10.66 -10 11.32 -10 12 C-11.6796875 13.62109375 -11.6796875 13.62109375 -13.875 15.4375 C-16.46193722 17.58400884 -18.11184374 19.16776562 -20 22 C-20.66 22 -21.32 22 -22 22 C-20.61867539 18.8731209 -19.02096237 16.80079608 -16.5625 14.4375 C-15.96566406 13.85871094 -15.36882812 13.27992187 -14.75390625 12.68359375 C-13.88572266 11.85021484 -13.88572266 11.85021484 -13 11 C-11.99750313 10.00250312 -10.99727893 9.00271369 -10 8 C-8.33333333 6.33333333 -6.66666667 4.66666667 -5 3 C-4.443125 2.401875 -3.88625 1.80375 -3.3125 1.1875 C-2 0 -2 0 0 0 Z " fill="#0C160C" transform="translate(116,31)"/>
<path d="M0 0 C-0.804375 0.45375 -1.60875 0.9075 -2.4375 1.375 C-6.62281647 4.11231598 -9.57943627 7.94392165 -12.75390625 11.7578125 C-15.13254716 14.13231664 -16.78610583 15.09948859 -20 16 C-23.25 15.75 -23.25 15.75 -26 15 C-26.33 14.34 -26.66 13.68 -27 13 C-26.11248047 13.06960937 -26.11248047 13.06960937 -25.20703125 13.140625 C-21.02110854 13.33182539 -18.6675782 13.40332849 -15 11.1875 C-12.80058068 9.07967048 -12.80058068 9.07967048 -12 6 C-11.34 6 -10.68 6 -10 6 C-9.67 4.68 -9.34 3.36 -9 2 C-8.01 2 -7.02 2 -6 2 C-6 1.34 -6 0.68 -6 0 C-3.50907189 -1.24546405 -2.58919267 -0.7767578 0 0 Z " fill="#0D130A" transform="translate(123,40)"/>
<path d="M0 0 C1.65 0 3.3 0 5 0 C5.66 1.32 6.32 2.64 7 4 C5.35 3.67 3.7 3.34 2 3 C1.67 14.55 1.34 26.1 1 38 C0.67 38 0.34 38 0 38 C0 25.46 0 12.92 0 0 Z " fill="#C90910" transform="translate(62,129)"/>
<path d="M0 0 C0.99 0.33 1.98 0.66 3 1 C1.68 1.33 0.36 1.66 -1 2 C-1 4.97 -1 7.94 -1 11 C-0.01 11.33 0.98 11.66 2 12 C2.66666667 13.33333333 3.33333333 14.66666667 4 16 C4.99 16.33 5.98 16.66 7 17 C7.33 18.65 7.66 20.3 8 22 C6.8944811 21.06409496 5.79064547 20.12620142 4.6875 19.1875 C4.07261719 18.66542969 3.45773438 18.14335938 2.82421875 17.60546875 C2.22222656 17.07566406 1.62023437 16.54585937 1 16 C0.44441406 15.53207031 -0.11117187 15.06414062 -0.68359375 14.58203125 C-2.3802974 12.54296603 -2.52269946 11.12269852 -2.75 8.5 C-2.82734375 7.7265625 -2.9046875 6.953125 -2.984375 6.15625 C-3 4 -3 4 -2 1 C-1.34 0.67 -0.68 0.34 0 0 Z " fill="#E1B326" transform="translate(131,52)"/>
<path d="M0 0 C0 0.66 0 1.32 0 2 C-2 3.625 -2 3.625 -4 5 C-3.65555119 7.47266765 -3.65555119 7.47266765 -3 10 C-0.71294169 11.14352916 0.59264762 11.10334439 3.125 11.0625 C4.40375 11.041875 5.6825 11.02125 7 11 C7 11.99 7 12.98 7 14 C0.13107822 14.7230444 0.13107822 14.7230444 -3.08984375 12.6640625 C-4.80497879 11.16989578 -6.43160073 9.64681923 -8 8 C-4.23529412 0 -4.23529412 0 0 0 Z " fill="#1C5F37" transform="translate(121,41)"/>
<path d="M0 0 C0.81434143 2.85160391 1.11881242 5.36626131 1.09765625 8.328125 C1.09282227 9.52695313 1.09282227 9.52695313 1.08789062 10.75 C1.07951172 11.575 1.07113281 12.4 1.0625 13.25 C1.05798828 14.09046875 1.05347656 14.9309375 1.04882812 15.796875 C1.03707961 17.86461401 1.01914522 19.93231624 1 22 C1.99 22.33 2.98 22.66 4 23 C2.68 23 1.36 23 0 23 C-2.8736403 16.35470681 -2.87530069 9.22767129 -1 2.3125 C-0.505 1.1678125 -0.505 1.1678125 0 0 Z " fill="#BB1015" transform="translate(70,77)"/>
<path d="M0 0 C1.98 0.66 3.96 1.32 6 2 C6.375 4.1875 6.375 4.1875 6 7 C4.16038352 8.99022836 2.20813852 10.38989899 0 12 C-0.33 11.34 -0.66 10.68 -1 10 C-0.34 10 0.32 10 1 10 C0.7215625 8.7934375 0.7215625 8.7934375 0.4375 7.5625 C0.293125 6.716875 0.14875 5.87125 0 5 C0.33 4.67 0.66 4.34 1 4 C0.34 3.67 -0.32 3.34 -1 3 C-0.67 2.01 -0.34 1.02 0 0 Z " fill="#1D1E1B" transform="translate(134,74)"/>
<path d="M0 0 C2.875 0.1875 2.875 0.1875 6 1 C7.5 3.3125 7.5 3.3125 8 6 C7.375 8.25 7.375 8.25 6 10 C3.55921111 11.13903482 2.40096591 11.11456169 -0.1875 10.375 C-2 9 -2 9 -2.9375 6.625 C-3.01450945 3.39060303 -2.15650737 2.32902796 0 0 Z M-1 3 C-1 4.98 -1 6.96 -1 9 C0.99954746 9.04254356 3.00041636 9.04080783 5 9 C6.29633621 7.93354885 6.29633621 7.93354885 6.0625 5.4375 C6.041875 4.633125 6.02125 3.82875 6 3 C2.41672247 1.99782936 2.41672247 1.99782936 -1 3 Z " fill="#E6B530" transform="translate(146,101)"/>
<path d="M0 0 C1.98 0 3.96 0 6 0 C5.67 2.97 5.34 5.94 5 9 C3.68 8.34 2.36 7.68 1 7 C0.27090544 4.56968481 0 2.52838375 0 0 Z " fill="#077333" transform="translate(89,78)"/>
<path d="M0 0 C1.2065625 0.0309375 1.2065625 0.0309375 2.4375 0.0625 C3.0625 2.4375 3.0625 2.4375 3.4375 5.0625 C2.7775 5.7225 2.1175 6.3825 1.4375 7.0625 C-1.1875 6.6875 -1.1875 6.6875 -3.5625 6.0625 C-3.605221 4.39638095 -3.60313832 2.72867115 -3.5625 1.0625 C-2.5625 0.0625 -2.5625 0.0625 0 0 Z " fill="#1C1C19" transform="translate(148.5625,31.9375)"/>
<path d="M0 0 C1.65 1.65 3.3 3.3 5 5 C2.03 4.505 2.03 4.505 -1 4 C-4.74525799 7.74525799 -4.68909949 11.98270909 -5 17 C-5.66 16.67 -6.32 16.34 -7 16 C-7.29629261 10.96302555 -7.0710449 8.05816648 -4 4 C-2.70420353 2.63015802 -1.38007251 1.2848951 0 0 Z " fill="#160705" transform="translate(135,71)"/>
<path d="M0 0 C2.7115029 4.06725434 2.57867488 7.1547611 3 12 C-0.3 12 -3.6 12 -7 12 C-7 10.02 -7 8.04 -7 6 C-6.01 6 -5.02 6 -4 6 C-4.33 7.65 -4.66 9.3 -5 11 C-3.02 11 -1.04 11 1 11 C0.67 7.37 0.34 3.74 0 0 Z " fill="#B91119" transform="translate(100,156)"/>
<path d="M0 0 C0.99 0 1.98 0 3 0 C3 0.66 3 1.32 3 2 C3.99 2 4.98 2 6 2 C5.625 4.4375 5.625 4.4375 5 7 C2.50907189 8.24546405 1.58919267 7.7767578 -1 7 C-0.7525 6.1028125 -0.7525 6.1028125 -0.5 5.1875 C0.1114124 2.88655664 0.1114124 2.88655664 0 0 Z " fill="#E30612" transform="translate(110,157)"/>
<path d="M0 0 C0 3 0 3 -1.0625 5.0625 C-1.371875 5.701875 -1.68125 6.34125 -2 7 C-1.67 7.66 -1.34 8.32 -1 9 C-2.32 9 -3.64 9 -5 9 C-5 9.66 -5 10.32 -5 11 C-7.97 10.505 -7.97 10.505 -11 10 C-10.29875 9.46375 -9.5975 8.9275 -8.875 8.375 C-5.69584371 5.74874046 -2.880978 2.94797749 0 0 Z " fill="#D91A09" transform="translate(113,93)"/>
<path d="M0 0 C0.99 0.33 1.98 0.66 3 1 C3.33 3.31 3.66 5.62 4 8 C3.01 8 2.02 8 1 8 C0.34 8.66 -0.32 9.32 -1 10 C-1.66 8.35 -2.32 6.7 -3 5 C-2.34 5 -1.68 5 -1 5 C-0.67 3.35 -0.34 1.7 0 0 Z " fill="#E2070F" transform="translate(139,153)"/>
<path d="M0 0 C2.24606427 1.77444972 2.95081002 2.58352485 3.29296875 5.48046875 C3.25816406 6.37378906 3.22335938 7.26710937 3.1875 8.1875 C3.16042969 9.08855469 3.13335937 9.98960937 3.10546875 10.91796875 C3.07066406 11.60503906 3.03585938 12.29210937 3 13 C2.34 13 1.68 13 1 13 C-2.06707855 6.62047661 -2.06707855 6.62047661 -1.75 3.6875 C-1.19742351 2.44420289 -0.60846174 1.21692349 0 0 Z " fill="#E50613" transform="translate(106,148)"/>
<path d="M0 0 C1.32 0.66 2.64 1.32 4 2 C4.63019694 11.17286652 4.63019694 11.17286652 2 14.625 C1.34 15.07875 0.68 15.5325 0 16 C0 14.68 0 13.36 0 12 C0.66 12 1.32 12 2 12 C2 8.7 2 5.4 2 2 C1.01 1.67 0.02 1.34 -1 1 C-0.67 0.67 -0.34 0.34 0 0 Z " fill="#B0181D" transform="translate(93,52)"/>
<path d="M0 0 C0.66 0 1.32 0 2 0 C2 0.66 2 1.32 2 2 C1.01 1.67 0.02 1.34 -1 1 C-0.67 0.67 -0.34 0.34 0 0 Z M-9 1 C-5.375 0.8125 -5.375 0.8125 -2 1 C-1.67 1.99 -1.34 2.98 -1 4 C-4.3 4 -7.6 4 -11 4 C-10.34 3.01 -9.68 2.02 -9 1 Z " fill="#E4060E" transform="translate(204,131)"/>
<path d="M0 0 C3.625 0.375 3.625 0.375 7 1 C7.33 2.98 7.66 4.96 8 7 C7.34 5.68 6.68 4.36 6 3 C4.02 3 2.04 3 0 3 C0 4.98 0 6.96 0 9 C-0.66 8.67 -1.32 8.34 -2 8 C-2.125 5.125 -2.125 5.125 -2 2 C-1.34 1.34 -0.68 0.68 0 0 Z " fill="#146032" transform="translate(74,30)"/>
<path d="M0 0 C8.14385151 -0.62645012 8.14385151 -0.62645012 11.5625 1.875 C13 4 13 4 13 6 C11.35 6 9.7 6 8 6 C7.67 4.35 7.34 2.7 7 1 C4.69 1 2.38 1 0 1 C0 0.67 0 0.34 0 0 Z " fill="#C90E15" transform="translate(120,160)"/>
<path d="M0 0 C0.99 0 1.98 0 3 0 C3 3.3 3 6.6 3 10 C1.02 10.33 -0.96 10.66 -3 11 C-2.01 9.02 -1.02 7.04 0 5 C0.66 5 1.32 5 2 5 C2 3.68 2 2.36 2 1 C1.34 0.67 0.68 0.34 0 0 Z " fill="#DD050D" transform="translate(98,129)"/>
<path d="M0 0 C0.99 0.66 1.98 1.32 3 2 C1.53033642 5.39859703 -0.38037514 7.64963709 -3 10.25 C-3.70125 10.95640625 -4.4025 11.6628125 -5.125 12.390625 C-7 14 -7 14 -9 14 C-9 13.34 -9 12.68 -9 12 C-7.02391144 10.21296775 -4.94319246 8.59386357 -2.84765625 6.94921875 C-0.66830711 4.65007452 -0.33660078 3.10420715 0 0 Z " fill="#150604" transform="translate(140,76)"/>
<path d="M0 0 C2.3125 -0.25 2.3125 -0.25 5 0 C6.8125 2 6.8125 2 8 4 C5.36 4.66 2.72 5.32 0 6 C0 4.02 0 2.04 0 0 Z " fill="#F5B712" transform="translate(130,54)"/>
<path d="M0 0 C1.98 0 3.96 0 6 0 C4.76302083 1.46484375 3.52604167 2.9296875 2.2890625 4.39453125 C1.10798901 5.8655046 0.04641471 7.43037794 -1 9 C-1 7.35 -1 5.7 -1 4 C-1.66 3.67 -2.32 3.34 -3 3 C-2.01 2.67 -1.02 2.34 0 2 C0 1.34 0 0.68 0 0 Z " fill="#C70A11" transform="translate(186,137)"/>
<path d="M0 0 C9.41002278 -0.3690205 9.41002278 -0.3690205 14 2 C14.33 4.64 14.66 7.28 15 10 C14.34 9.01 13.68 8.02 13 7 C10.12636494 3.45021552 8.18969383 1.73732544 3.6875 1.1875 C2.470625 1.125625 1.25375 1.06375 0 1 C0 0.67 0 0.34 0 0 Z " fill="#BC1014" transform="translate(34,136)"/>
<path d="M0 0 C2.475 0.99 2.475 0.99 5 2 C5 2.99 5 3.98 5 5 C2.69 5.66 0.38 6.32 -2 7 C-1.67 6.01 -1.34 5.02 -1 4 C-0.65772583 2.66893378 -0.32248257 1.33599921 0 0 Z " fill="#E40511" transform="translate(146,130)"/>
<path d="M0 0 C1.98 0.99 1.98 0.99 4 2 C3.855625 2.825 3.71125 3.65 3.5625 4.5 C2.94746848 8.32686278 2.46439363 12.15216707 2 16 C1.67 16 1.34 16 1 16 C1.01160156 15.18015625 1.02320312 14.3603125 1.03515625 13.515625 C1.04869141 11.89914063 1.04869141 11.89914063 1.0625 10.25 C1.07410156 9.18265625 1.08570312 8.1153125 1.09765625 7.015625 C1.01510087 4.46631499 0.74617558 2.42066409 0 0 Z " fill="#B41E1D" transform="translate(78,75)"/>
<path d="M0 0 C1.32 0.66 2.64 1.32 4 2 C2.576875 2.61875 2.576875 2.61875 1.125 3.25 C-2.00716624 5.0040131 -2.86500606 5.70851757 -4 9 C-4.99 9 -5.98 9 -7 9 C-5.44499019 5.18315774 -2.96404505 2.80804268 0 0 Z " fill="#F69723" transform="translate(120,101)"/>
<path d="M0 0 C2.0625 0.4375 2.0625 0.4375 4 1 C2.52307692 6.66153846 2.52307692 6.66153846 -0.125 8.375 C-0.74375 8.58125 -1.3625 8.7875 -2 9 C-2.66 8.01 -3.32 7.02 -4 6 C-2.68 6 -1.36 6 0 6 C0.33 4.68 0.66 3.36 1 2 C0.34 1.67 -0.32 1.34 -1 1 C-0.67 0.67 -0.34 0.34 0 0 Z " fill="#130E09" transform="translate(152,61)"/>
<path d="M0 0 C-1.07401108 2.91517292 -1.77810176 4.77810176 -4 7 C-4 5.68 -4 4.36 -4 3 C-4.99 3 -5.98 3 -7 3 C-7 2.34 -7 1.68 -7 1 C-4 0 -4 0 0 0 Z " fill="#CF0D13" transform="translate(101,139)"/>
<path d="M0 0 C2.475 0.99 2.475 0.99 5 2 C1.4912812 5.09592835 -1.49197399 6.74194623 -6 8 C-5.67 7.34 -5.34 6.68 -5 6 C-4.34 6 -3.68 6 -3 6 C-3 5.34 -3 4.68 -3 4 C-2.01 4 -1.02 4 0 4 C0 2.68 0 1.36 0 0 Z " fill="#C71014" transform="translate(108,107)"/>
<path d="M0 0 C1.32 0.33 2.64 0.66 4 1 C4 2.32 4 3.64 4 5 C4.66 5 5.32 5 6 5 C6.33 4.34 6.66 3.68 7 3 C7 3.99 7 4.98 7 6 C6.34 6.66 5.68 7.32 5 8 C0 2.25 0 2.25 0 0 Z " fill="#C50C0E" transform="translate(103,156)"/>
<path d="M0 0 C1.32 1.32 2.64 2.64 4 4 C3.67 4.99 3.34 5.98 3 7 C1.02 7.33 -0.96 7.66 -3 8 C-1.25 4.125 -1.25 4.125 1 3 C0.67 2.01 0.34 1.02 0 0 Z " fill="#08682E" transform="translate(121,41)"/>
<path d="M0 0 C1.23556641 0.01740234 1.23556641 0.01740234 2.49609375 0.03515625 C3.32238281 0.04417969 4.14867187 0.05320313 5 0.0625 C5.63808594 0.07410156 6.27617187 0.08570313 6.93359375 0.09765625 C6.93359375 0.42765625 6.93359375 0.75765625 6.93359375 1.09765625 C4.95359375 1.09765625 2.97359375 1.09765625 0.93359375 1.09765625 C0.93359375 1.75765625 0.93359375 2.41765625 0.93359375 3.09765625 C0.27359375 3.09765625 -0.38640625 3.09765625 -1.06640625 3.09765625 C-1.39640625 4.08765625 -1.72640625 5.07765625 -2.06640625 6.09765625 C-2.39640625 6.09765625 -2.72640625 6.09765625 -3.06640625 6.09765625 C-3.10912725 4.4315372 -3.10704457 2.7638274 -3.06640625 1.09765625 C-2.06640625 0.09765625 -2.06640625 0.09765625 0 0 Z " fill="#DA050A" transform="translate(189.06640625,144.90234375)"/>
<path d="M0 0 C3.45925163 1.2491742 6.14693203 2.67527795 9 5 C8.67 5.66 8.34 6.32 8 7 C6.02 6.01 4.04 5.02 2 4 C2 3.34 2 2.68 2 2 C1.34 2 0.68 2 0 2 C0 1.34 0 0.68 0 0 Z " fill="#C10D13" transform="translate(44,129)"/>
<path d="M0 0 C0.99 0.33 1.98 0.66 3 1 C4.1875 4.5625 4.1875 4.5625 5 8 C3.02 6.68 1.04 5.36 -1 4 C-0.67 2.68 -0.34 1.36 0 0 Z " fill="#395F29" transform="translate(75,68)"/>
<path d="M0 0 C0 2.31 0 4.62 0 7 C-2.02054804 5.35830472 -4.02043058 3.69088222 -6 2 C-6 1.67 -6 1.34 -6 1 C-1.125 0 -1.125 0 0 0 Z " fill="#D0090E" transform="translate(163,136)"/>
<path d="M0 0 C-0.33 0.66 -0.66 1.32 -1 2 C-3.64 2 -6.28 2 -9 2 C-9 1.34 -9 0.68 -9 0 C-3.375 -1.125 -3.375 -1.125 0 0 Z " fill="#16622D" transform="translate(129,53)"/>
<path d="M0 0 C0.99 0.33 1.98 0.66 3 1 C3.6875 3.0625 3.6875 3.0625 4 5 C3.01 5.495 3.01 5.495 2 6 C0.68 5.01 -0.64 4.02 -2 3 C-1.34 3 -0.68 3 0 3 C0 2.01 0 1.02 0 0 Z " fill="#D10B10" transform="translate(87,150)"/>
<path d="M0 0 C0.66 0.66 1.32 1.32 2 2 C1 3 1 3 -0.84765625 3.09765625 C-2.8984375 3.06510417 -4.94921875 3.03255208 -7 3 C-7 2.34 -7 1.68 -7 1 C-3.625 0.375 -3.625 0.375 0 0 Z " fill="#C7090F" transform="translate(98,113)"/>
<path d="M0 0 C1.9375 0.375 1.9375 0.375 4 1 C4.33 1.66 4.66 2.32 5 3 C3.35 3 1.7 3 0 3 C0 3.66 0 4.32 0 5 C-0.66 5 -1.32 5 -2 5 C-1.34 3.35 -0.68 1.7 0 0 Z " fill="#B51618" transform="translate(73,72)"/>
<path d="M0 0 C-0.99 1.32 -1.98 2.64 -3 4 C-5 3 -5 3 -6 0 C-3.50907189 -1.24546405 -2.58919267 -0.7767578 0 0 Z " fill="#0E5B2D" transform="translate(85,42)"/>
</svg>
